<?xml version="1.0" encoding="UTF-8"?>
<svg id="Layer_6" xmlns="http://www.w3.org/2000/svg" version="1.1" viewBox="0 0 282.5 92.5">
  <!-- Generator: Adobe Illustrator 29.1.0, SVG Export Plug-In . SVG Version: 2.1.0 Build 142)  -->
  <defs>
    <style>
      .st0 {
        fill: #c00;
      }

      .st1 {
        fill: #7d3f98;
      }
    </style>
  </defs>
  <g>
    <path class="st0" d="M242.5,57c.4,0,1,0,1.4-.2v-1.9c-.4,0-.8.1-1.1.1-1,0-1.6-.5-1.6-2.1v-17.3h-4.5v1.9h2v15.4c0,2.6,1.1,4,3.7,4M248.6,53v-8.9h3.1v-1.9h-3.1v-3.7h-2.4v3.7h-2.3v1.9h2.3v9c0,2.6,1.2,3.8,4,3.8s1.1,0,1.5-.2v-1.9c-.5,0-.9.1-1.2.1-1.3,0-1.8-.4-1.8-2M209.1,43.7c3.2,0,4.9,2.2,5.1,4.6h-10.5c.3-2.7,2.2-4.6,5.4-4.6M221,49.5c0-3.3,2.2-5.7,5.3-5.7s5.2,2.4,5.2,5.7-2.1,5.7-5.2,5.7-5.3-2.4-5.3-5.7M259.6,54.9h-2v-6.5c0-3.1,1.6-4.6,4.4-4.6s4.2,1.5,4.2,4.6v6.5h-2v1.9h6.5v-1.9h-2v-6.5c0-3.6-2.3-6.6-6.3-6.6s-3.7.8-4.7,2.1v-8.2h-4.5v1.9h2v17.3h-2v1.9h6.5v-1.9h0ZM184.5,44.4v-6.8h2.2v-2h-6.9v2h2.2v17.2h-2.2v2h6.9v-2h-2.2v-8.4h11v8.4h-2.2v2h6.9v-2h-2.2v-17.2h2.2v-2h-6.9v2h2.2v6.8h-11ZM216.3,52.8h-2.4c-.9,1.5-2.4,2.4-4.7,2.4-3.4,0-5.2-2-5.5-5h13v-1c0-4.5-3-7.5-7.6-7.5s-7.9,3.2-7.9,7.7,3.2,7.7,7.9,7.7c3.4,0,6-1.6,7.2-4.3M231.4,56.8h4.5v-1.9h-2v-10.8h2v-1.9h-4.5v2.2c-1.3-1.6-3.2-2.6-5.5-2.6-4.3,0-7.5,3.3-7.5,7.7s3.2,7.7,7.5,7.7,4.2-1,5.5-2.6v2.2Z"/>
    <path class="st0" d="M165,50.1c.3,1.6,1.3,2.1,3.2,2.1s2.6-.6,2.6-1.5c0-1.3-1.2-1.4-3.8-2.1-3-.8-5-1.4-5.9-2-1.7-1.1-2.5-2.8-2.5-4.9,0-4.1,3.3-6.7,9.1-6.7s9,2.4,9.4,6.6h-6.6c-.2-1.3-1.1-1.8-2.8-1.8s-2.2.5-2.2,1.4,1.1,1.3,3.2,1.8c2.7.7,4.9,1.1,6.2,2,1.9,1.2,2.8,2.8,2.8,4.9,0,4.6-3.4,7.3-9.7,7.3s-9.3-2.7-9.7-7.2h6.8Z"/>
    <path class="st0" d="M139.3,48.6c-.4,5.6-4.2,8.8-10.4,8.8s-11.2-4.3-11.2-11.1,4.3-11.2,11.1-11.2,10.1,3.1,10.5,8.6h-6.7c-.2-2.1-1.5-3.3-3.7-3.3s-4.1,1.9-4.1,5.9,1.5,5.8,4.3,5.8,3.5-1.2,3.7-3.5h6.6Z"/>
  </g>
  <polygon class="st0" points="152.5 35.6 148.6 49.3 144.9 35.6 137.8 35.6 145.1 56.8 152.1 56.8 159.4 35.6 152.5 35.6"/>
  <g>
    <path class="st1" d="M12.8,38.1c.7,0,1.4.3,2,.8l3.2,3.1,3.2-3.1c.5-.5,1.3-.8,2-.8s1.4.3,2,.8l3.9,3.8c1.1,1,1.1,2.8,0,3.8l-11.1,10.7-11.1-10.7c-1.1-1-1.1-2.8,0-3.8l3.9-3.8c.5-.5,1.2-.8,1.9-.8M79.1,53.1l.2,3.7c-.4.1-1.8.4-3.7.4-3.8,0-5.9-1.6-5.9-5.4s0-6.3,0-8h-2c0-.8,0-2,0-2.8,3-.5,3.9-2.1,4.4-5.2h3.3c-.1,1.3-.2,3.2-.2,4.5h3.5v3.6h-3.5v6.5c0,2.5.5,3.2,2.3,3.2.5,0,1.2-.2,1.5-.4M97.4,49c0-1.4,0-3.3,0-3.3,0-4.2-1.9-6.1-7.3-6.1s-5.2.5-8.6.5c.2,3,.2,6.6.2,8.9s0,6.5-.2,7.8h5.8c-.1-1.3-.3-5.2-.2-7.8,0-1.5,0-3.3,0-5.7.6-.2,1.3-.3,2.1-.3,2,0,2.7.9,2.7,3.5,0,0,0,1.6,0,2.5,0,2.3,0,6.5-.2,7.8h5.8c-.1-1.4-.3-5.2-.2-7.8M56.1,46.8c0-2.4.8-4.1,3-4.1s2.1.6,2.1,1.8-1.1,2.4-3.5,2.4-1.2,0-1.6,0h0ZM40.1,53.9c-1.8,0-2.6-.6-2.6-2.1s1-2.3,3.5-2.3h.7c0,1.4,0,3,0,4.2-.4.1-1.1.2-1.7.2M60.8,53.7c-3,0-4.6-1.5-4.6-3.9h0c.5,0,1.6,0,2.2,0,5.4,0,8.1-1.6,8.1-5.1s-2.3-5-7.2-5-8.4,2.6-8.9,7.2c-.9,0-1.8,0-3.1,0v-.8c0-4.7-2-6.4-7.3-6.4s-4.9.4-6.3.9l.2,3.7c1.2-.6,3.1-1.2,4.8-1.2,2.4,0,3.2,1,3.2,3.3v.3h-.8c-6.1,0-8.9,1.8-8.9,5.1s1.7,5.4,6.7,5.4,5.2-.3,8.6-.3c-.3-1.4-.3-3.3-.3-4.7s0-1.6,0-2.5c1.4,0,2.5,0,3.2,0,.5,5.5,3.4,7.5,9.6,7.5s4.5-.4,5.7-.9l-.2-3.7c-1.1.7-2.8,1.2-4.6,1.2M107.7,53.9c-1.9,0-2.6-.6-2.6-2.1s1-2.3,3.5-2.3h.7c0,1.4,0,3,0,4.2-.4.1-1.1.2-1.7.2M114.7,52.1c0-1.5.2-3.7.2-6.2,0-4.7-2-6.4-7.3-6.4s-4.9.4-6.3.9l.2,3.7c1.2-.6,3.1-1.2,4.8-1.2,2.4,0,3.2,1,3.2,3.3v.3h-.8c-6.1,0-8.9,1.8-8.9,5.1s1.7,5.4,6.7,5.4,5.2-.3,8.6-.3c-.3-1.3-.3-3.3-.3-4.7"/>
    <path class="st0" d="M274.3,54.6c.3,0,.6,0,.6-.4s-.3-.3-.5-.3h-.5v.7h.4ZM273.8,55.9h-.4v-2.4h1c.6,0,.9.2.9.7s-.3.6-.6.7l.7,1h-.5l-.6-1h-.4v1ZM274.3,52.9c-1,0-1.7.7-1.7,1.8s.7,1.8,1.7,1.8,1.7-.7,1.7-1.8-.7-1.8-1.7-1.8M274.3,56.9c-1.3,0-2.2-.9-2.2-2.2s1-2.2,2.2-2.2,2.2.9,2.2,2.2-1,2.2-2.2,2.2"/>
  </g>
</svg>