<?xml version="1.0" encoding="UTF-8"?>
<svg id="Layer_2" xmlns="http://www.w3.org/2000/svg" version="1.1" viewBox="0 0 282.5 92.5">
  <!-- Generator: Adobe Illustrator 29.1.0, SVG Export Plug-In . SVG Version: 2.1.0 Build 142)  -->
  <defs>
    <style>
      .st0 {
        fill: #d7262c;
      }
    </style>
  </defs>
  <path class="st0" d="M235.1,74.9c-.7.7.4,1.6,0,2.2-3.4-.4-4,.3-4.6,4.4h-9.4c.5-1.6.9-2.9,1.4-4.7-2.3-.8-4.6-1.9-7.1-2.4-1.6-.4-2.3-1.4-2.7-2.6-.4-1.4-.2-2.6.9-3.7,1.7-1.6,3.3-3.4,4.8-5.3.7-.9,1.1-2.1,1.6-3.3.1-.3,0-1.2-.2-1.4-.8,1.1-2.7,4.1-3.3,4.1-.8.1-.2-3.3-1.4-2.8-1.3.6-.4,7.8-8.2,6.4,2.2-3.4,1.1-6.4-2.6-3.7.4-2.8,0-5.4-.5-7.9-.3-1.2-1.4-2.2-2.1-3.4-.7-1.3-2.1-2.4-2.2-3.8-.4-3.1-.2-7.4-.4-10.5,0-.6-1.1-.4-1.6-.7-3.4-2.1-3.4-4.6-2.1-8.4.4-1.4,1.6-2.8,2.9-3.9-.1,2.4.4,3.6.9,4.6.1.3.8.8,1,.7,0-1.1,0-2.3.2-3.4.4-3.5,1.7-5.2,5.2-5.3,1.9,0,4.2.3,6.1,0,1.2-.1,3.1-.2,3.6-1,.1-.2,0-.8-.1-.9-.5-.4-1.6-.1-2.4-.1s-2.1,0-3,0c.4-4,4.9-7.9,9.2-8.1,3.9-.3,9,.9,12.1,3.1,5.9,3.6,8.5,6.6,14.8,11.6,3.4,2.5,6.4,4.5,9.9,6.9.5.4,1.6.9,2.6,1.3-.7-2.5-1.4-4.5-1.9-6.5-.3-1.1-.4-2.4-.4-3.5,0-3.2,1.6-4.7,4.5-3.7,4.1,1.4,8.3,3.6,12.5,5.4-3.2,2.9-7.1,3.4-9-.1-.4-.5-.7-1-1.1-1.4-1.9-1.5-3.2-.9-3.6-.1-.3.5,0,1.5.1,2.1,1.1,2.4,2.3,4.8,3.6,7.1,1.8,3.1,4,5.9,5.6,9.1,3.1,6.1,2.7,12.3-.9,18.3-.7,1.2-.8,3.4-.2,4.8.6,1.4.4,2.1,1.3,3.4,1.4,2-.6,2.7-1.9,6.6-.6,1.6-.6,3.9-.7,5.7-.1,1.2-.5,1.7-1.7,1.7-2,0-4,0-6.6,0,.9-1.5.6-2.9,1.5-3.6,2.8-1.8,3.1-4,2.7-7-.7-2.9-1.3-4.9-2.4-5.4-.9-.4-2.6-.4-5.2,0-.4.4,0,1.1,0,1.2,1.5,2.2,0,2.9-1.6,4.1-3.1,2.4-5.4,4.3-6.6,8.2-.1.5-.3,2.3-.7,2.4-2.3.1-6.1,0-8.4,0-.1-.2.5-1.1.5-1.4,0-1.3,1-1.7,1.9-2.5,3.1-2.5,4.2-5.8,5.3-9.3.6-1.8-2.3-2.4-3.4-2.3-1.2.1-2.6,0-3.8,2.8-.4.9-.6,1.9-.7,2.8-.1.9.1,2.6,0,3,0,0-1.7,0-1.9,0ZM238.5,31c-.3,0-1.1-.4-1.3-.3,5.6,7.7,5.7,14.3-1.1,20.7,1,0,2.1-.1,2.6-.2,5.1-.5,7.9-1.6,14.6-1.4,6.7,0,8.9,1.7,11.2,7.9.2,0,.4-.1.6-.3,4.9-5.9,2.9-16.2-4.1-19.3-7.4-3.2-13.9-7.7-19.8-13-.6-.6-1.9-1.6-2.6-2.1-.2.1,0,1,0,1,0,0,2.1,5,3.4,7.9-1.6-.4-2.6-.7-3.5-.9ZM224.5,24.2c0,3-1.1,4.9-3.2,6.4-1.2.9-1.7,2.5-.4,3.9,1.2,1.4,2.6,1.1,4,.2,3.2-2.2,3.2-6.9-.4-10.5ZM228.1,64.6c-2.1,1.8-4.3,3.6-6.4,5.4,1.2.5,2.5.1,3.4.6s1.2,1.7,1.8,2.6c2.1-1.8,2.7-5.9,1.2-8.6ZM205.2,50.4c.4.3,1.7-.1,2.1.2.6.4,1.3,1.9,2.5,1.9s1.7-1.2,2.4-1.6c.4-.3,1.9,0,2.4-.3-1.4-2.5-7.3-2.7-9.4-.1ZM219.8,38.7c-.6.7-1.5,1.6-2,2.4-.2.4-.4,1.1-.2,1.4.3.3,1.2.2,1.6,0,.9-.5,1.3-3.1.6-3.8Z"/>
  <g>
    <g>
      <path d="M17.6,70.1l-3.8,11.6h-4.9l13.3-36.8h3.9l13.5,36.8h-5.1l-3.9-11.6h-13ZM29,65.6l-4.7-13.2c-.6,2.2-4.7,13.1-4.7,13.1h9.4Z"/>
      <path d="M42.3,62.2c0-2.7,0-7.4,0-7.4h4.4c0,0,0,2.2,0,2.2h.5c1.4-2.6,3.2-3,6.4-3s5.5,1.1,6.6,4.2h.6c.8-1.6,1.3-2.1,2.4-2.9,1.6-.9,3.3-1.3,5.6-1.3s8,2.8,8,11.9v15.6h-4.3v-14.9c0-5.1-1.7-8.1-5.3-8.1s-4.4.9-5.1,3.2c-.2.6-.4,2.6-.4,3.6v16.3h-4.3v-15.8c0-4.2-1.7-7.3-5.1-7.3s-4.3,1.1-5,3.6c-.3.7-.5,2.8-.5,3.6v15.9h-4.7l.3-19.4Z"/>
      <path d="M84.6,69.3c.1,6.5,3.7,8.7,8.6,8.7s5.6-2.6,6.7-4.4l3.3,3.1c-2.3,3.3-5.9,5.4-10.1,5.4-8.2,0-13.1-5.4-13.1-13.3s3.6-14.2,12.5-14.2,11.8,7.6,11.8,12.4-.1,1.7-.1,2.2h-19.6ZM99.3,65.9c0-3.1-1.8-7.5-7.2-7.5s-7.1,4.2-7.4,7.5h14.6Z"/>
      <path d="M107.1,63.4v-8.6h4.5v3.3c0,0,.2.1.2.1,1.3-2.7,4.2-3.8,6.1-3.7.5,0,2.5-.1,2.9,0v4.5c-.4-.1-2.6,0-3.1,0-3.1,0-5.3,2.6-5.9,6.1,0,.6-.2,1.4-.2,2.2v14.1h-4.4v-18.1h0Z"/>
      <path d="M124,82v-26.4h4.4v26.4h-4.4ZM124,53.2v-5.1h4.4v5.1h-4.4Z"/>
      <path d="M140.7,47.7v7.6h7v3.6h-7v14.2c0,3.3.9,5.1,3.3,5.1s2.9-.6,3.8-1.2v4.1c-.9.4-2.1,1.1-4.9,1.1-2.1,0-3.7-.7-4.8-2-1.3-1.4-1.7-3.8-1.7-6.9v-14.4h-4.6v-3.6h4.6v-7.6h4.4Z"/>
      <path d="M166.9,81.6l-.4-3.4h-.1c-1.5,2.1-4.4,3.9-8.2,3.9-5.4,0-8.2-3.8-8.2-7.6,0-7.2,5.8-9.9,16.2-9.8v-.6c0-2.2-.6-6.1-6.1-6.1s-4.4,1.4-6.4,3.1l-2.9-2.7c3.6-3.1,6.9-4.4,10.2-4.4,8.2,0,10,5.9,10,11.2v9.9c0,2.3.1,4.5.4,6.4h-4.5q0,0,0,0ZM166.2,68.7c-5.4-.1-11.4.2-11.4,5.4s2.1,4,4.6,4,5.7-1.6,6.5-3.9c.1-.5.3-1.1.3-1.5v-4h0Z"/>
      <path d="M176.9,73.6c.7,1.5,1.9,4.4,6.3,4.4s5.1-1.6,5.1-3.4-1.4-4.7-4.9-4.9c-6.4-.3-9.1-4.4-9.1-7.5s3.6-8.1,8.9-8.1,6.5,1,9.3,5.1l-3.9,2.8c-1.3-2.9-2.9-3.8-5.1-3.8s-4.4,1.5-4.4,3.4,2.1,3.9,6.9,4.5c4.5.6,7,3.9,7,7.9s-3.9,8.4-9.7,8c-7.1-.5-8.7-4.1-9.7-5.4l3.5-3.1Z"/>
    </g>
    <path d="M196.2,77.4c.2,0,.5,0,.9,0s.8,0,1,.2c.1.1.3.4.3.6,0,.4-.3.6-.6.7h0c.3,0,.4.3.5.6.1.4.2.7.3.8h-.4c0,0-.1-.4-.2-.7,0-.4-.3-.6-.6-.6h-.4v1.3h-.4v-2.8h-.1ZM196.6,78.7h.4c.4,0,.8-.2.8-.6s-.3-.6-.8-.6h-.4v1.1Z"/>
    <path d="M197.3,82.1c-1.8,0-3.3-1.4-3.3-3.3s1.4-3.3,3.3-3.3,3.3,1.4,3.3,3.3-1.5,3.3-3.3,3.3ZM197.3,76.5c-1.3,0-2.4,1.1-2.4,2.4s1.1,2.4,2.4,2.4,2.4-1.1,2.4-2.4c0-1.3-1.1-2.4-2.4-2.4Z"/>
  </g>
</svg>