<?xml version="1.0" encoding="UTF-8"?>
<svg id="Layer_4" xmlns="http://www.w3.org/2000/svg" version="1.1" viewBox="0 0 282.5 92.5">
  <!-- Generator: Adobe Illustrator 29.1.0, SVG Export Plug-In . SVG Version: 2.1.0 Build 142)  -->
  <defs>
    <style>
      .st0 {
        fill: #41375e;
        fill-rule: evenodd;
      }
    </style>
  </defs>
  <path class="st0" d="M120.3,68.4c-1.2-.4-1.3-.9-1.4-1.7,0-.8.8-1.2,1.3-1.2v3h.1ZM116.7,27.7s.7.9,1.6.9.7-.9.7-.9h-2.3ZM123.8,57c-.7-.2-.4,0-1.4-.5-1-.5-1.5-.8-1.5-2.2s1.1-1.1,1.9-.9c.8.1,1,.4,1,1.3v2.3ZM121,61.9c.5,0,2.6.5,3.3,2.4l-.3,4.3c0,1.7-2.7,2.3-2.8-.1l-.2-6.6h0ZM123.7,46.4c-1.4,0-3.3-.4-4.1-.8,0,0-.4,0-.8-2.3-.2-1.3,0-1.9,1.4-1.9h1.9c1.4,0,2.2.9,1.9,1.9l-.3,3.1ZM119.4,53.5c-.2,1,.7,3.5,3.4,4.3,1.9.4,3,1.3,3.7,2.2,1.5,1.6-.4,3.1-1.7,3.3-1-2.3-1.3-1.4-5.4-3.5-4.3-2.4-2.5-6,0-6.3ZM126.7,27.4c1.8-1.6,3.6,1.6,2.4,2.9,0,0-3.9,3.8-4.5,4.3-1.2-.4-4.6-.9-5.3-.9.2-.9,0-1.1.3-1.3.1-.1.3-.2.4-.3,0,0,.2-.1.3-.2.3-.2.5-.3.7-.5l2.9.4-2.2-1.2c.3,0,.9-.5,1.1-.7.1-.2,0-.5,0-.7-.5-.8-1.9-2.5-3.7-3.2-.6-.6-.5-.8.2-.8,0,0,2.2,0,3.5.3,1.2.3,1.1.6,1.1,1.4s.1,1.2.4,2c1.3-1.1,1.7-1.2,2.5-1.6h0ZM124.8,55.9c0-.5.7-3.8-1.6-3.9-3.3-.1-5.9-.8-7.3-3.1-1.4-2.3-.3-5.1,1.9-4.9.4,3.9,3.1,3.3,5.1,3.8,2,.4,5.3,1.9,5.3,4.7s-2.3,3.2-3.6,3.5h0ZM124.9,35.8c2.6.6,4.6,3.4,4.6,5.8s-3.2,3.9-5,4.3l.3-3.7c0-2.4-3.2-2.1-8.2-2.8-5.6-1.1-7.3-3.9-7.4-6.4,0-2.2,1.2-4.4,2.3-5,1.8-1,3.2-1.4,4.3-1.4,2.3,0,3.9.6,5.7,2.8h-4.5s-1,.5.6,1.3c0,0,.9.6,2,.5,0,0-.9,1.5-3.8.8-1.5-.8-2.3,1.3.3,2.2,1,.4,6.1.9,8.7,1.5h0ZM139.4,53.6c8.3-17.3,5.6-30.8,4.4-35.2-7.8,2.1-16.8,3.4-21.3,3.4s-14.3-1.3-22.5-3.5c-1.2,4.5-3.7,18.1,4.5,35.4,3.3,6.7,10.6,15.4,17.4,20.7,6.7-5.2,14-13.9,17.4-20.7h0ZM146.7,15.5c1,2.4,2.2,7.5,2.2,13.8s-2.1,17.4-6.1,25.9h0c-3.8,7.8-12,17.4-19.6,22.9l-1.1.8-1.1-.8c-7.6-5.6-15.8-15.2-19.6-22.8h0c-4.1-8.6-6.2-17.3-6.2-26,0-8.4,1.9-13.3,2.1-13.9l.6-1.5,1.6.5c8,2.4,19,3.9,23.1,3.9s13.8-1.3,21.9-3.7l1.6-.5.6,1.5ZM150.6,13.8l-2.1-5.1-5.3,1.5c-7.7,2.3-17.2,3.5-20.7,3.5s-14.4-1.5-21.9-3.7l-5.3-1.6-2.1,5.1c-1.2,2.9-2.4,8.5-2.4,15.5,0,9.3,2.3,18.7,6.6,27.8h0s0,0,0,0c4,8.2,12.8,18.5,20.9,24.4l3.6,2.6,3.6-2.6c8-5.8,16.8-16.1,20.9-24.4h0s0,0,0,0c4.3-9.1,6.5-18.4,6.5-27.8s-1.3-12.5-2.5-15.4ZM227.8,54.9h1.9v-2.3h-1.9v2.3ZM227.8,68.7h1.9v-11.6h-1.9v11.6ZM204.2,68.7h1.9v-16h-1.9v16ZM251.3,62.9v.7c0,.9-.1,1.5-.3,2-.3.6-.7,1-1.2,1.3-.6.4-1.2.5-1.9.5s-1.3-.2-1.7-.5c-.4-.3-.6-.8-.6-1.3,0-.3,0-.7.3-.9.2-.3.4-.5.7-.6.3-.1.9-.3,1.6-.4,1.4-.2,2.4-.4,3.1-.8h0ZM233.7,62.9c0-1.5.3-2.7.9-3.4.5-.7,1.2-1.1,2.1-1.1s1.6.4,2.1,1.1c.6.8.9,1.9.9,3.5s-.3,2.5-.9,3.2c-.6.7-1.3,1.1-2.1,1.1s-1.5-.4-2.1-1.1c-.6-.7-.9-1.8-.9-3.3h0ZM220.7,68.7h1.9v-6.1c0-.8.1-1.6.3-2.3.1-.4.4-.8.7-1.1.3-.3.7-.4,1.1-.4s.9.1,1.4.4l.6-1.8c-.6-.4-1.3-.6-1.9-.6s-.8.1-1.2.4c-.4.3-.8.8-1.2,1.6v-1.7h-1.7v11.6h0,0ZM210.2,62.9c0-1.5.3-2.6.9-3.3.6-.7,1.4-1.1,2.3-1.1s1.7.4,2.3,1.1c.6.7.9,1.8.9,3.3s-.3,2.7-.9,3.4c-.6.8-1.4,1.1-2.3,1.1s-1.7-.4-2.3-1.1c-.6-.7-.9-1.8-.9-3.3ZM179.9,68.7h1.9v-10.1h2.1v-1.5h-2.1v-1.1c0-.7.1-1.2.3-1.4.2-.2.6-.4,1.2-.4s.7,0,1.1,0l.3-1.7c-.6-.1-1.2-.2-1.7-.2-.8,0-1.4.2-1.9.5-.4.3-.8.7-1,1.2-.1.4-.2,1-.2,1.7v1.2h-1.7v1.5h1.7v10.1h0,0ZM168.9,62.9c0-1.5.3-2.6.9-3.3.6-.7,1.4-1.1,2.3-1.1s1.7.4,2.3,1.1c.6.7.9,1.8.9,3.3s-.3,2.7-.9,3.4c-.6.8-1.4,1.1-2.3,1.1s-1.7-.4-2.3-1.1c-.6-.7-.9-1.8-.9-3.3ZM239.6,68.7h1.7v-16h-1.9v5.7c-.3-.5-.8-.9-1.3-1.2-.5-.3-1.2-.4-1.8-.4-.9,0-1.7.3-2.4.8-.7.5-1.3,1.2-1.7,2.2-.4,1-.6,2.1-.5,3.2,0,1.2.2,2.2.6,3.2.4.9,1,1.6,1.7,2.1.7.5,1.5.8,2.4.8,1.4,0,2.4-.6,3.1-1.7v1.5h0ZM251.5,67.2c0,.5.2,1,.4,1.4h2c-.2-.4-.4-.9-.5-1.4,0-.5-.1-1.6-.1-3.5v-2.6c0-.9,0-1.5,0-1.8-.1-.5-.3-1-.6-1.3-.3-.4-.7-.7-1.3-.9-.6-.2-1.3-.4-2.3-.4s-1.8.1-2.5.4c-.7.3-1.3.7-1.6,1.2-.4.5-.7,1.2-.8,2l1.8.3c.2-.8.5-1.4.9-1.7s1.1-.5,1.9-.5,1.6.2,2.1.7c.3.3.5.9.5,1.7v.5c-.7.3-1.8.5-3.3.7-.6,0-1.1.2-1.7.3-.5.1-.9.4-1.3.6-.4.3-.7.7-1,1.1-.2.5-.4,1-.4,1.6,0,1,.3,1.7,1,2.4.7.6,1.6.9,2.8.9s1.4-.1,2.1-.4c.6-.3,1.3-.7,2-1.3h0ZM191.6,68.7h2v-7.3h7.1v-1.9h-7.1v-5h8.2v-1.9h-10.2v16h0ZM208.2,62.9c0,2,.5,3.5,1.4,4.5.9,1,2.2,1.6,3.7,1.6s1.9-.2,2.7-.7c.8-.5,1.4-1.2,1.9-2,.4-.8.6-2,.6-3.5s-.5-3.3-1.4-4.3c-1-1-2.2-1.6-3.7-1.6s-2.5.4-3.4,1.3c-1.1,1-1.7,2.6-1.7,4.8h0ZM167,62.9c0,2,.5,3.5,1.4,4.5.9,1,2.2,1.6,3.7,1.6s1.9-.2,2.7-.7c.8-.5,1.4-1.2,1.9-2,.4-.8.6-2,.6-3.5s-.5-3.3-1.4-4.3c-1-1-2.2-1.6-3.7-1.6s-2.5.4-3.5,1.3c-1.1,1-1.7,2.6-1.7,4.8h0ZM138.6,80.5h-1v-1.9h1.3c.6,0,1.2.2,1.2.9s-.8.9-1.5.9ZM139.3,80.8c.7-.1,1.2-.5,1.2-1.3s-.5-1.3-1.6-1.3h-1.8v4.8h.4v-2.2h1.2l1.4,2.2h.5l-1.4-2.2ZM138.6,84.3c-2.1,0-3.7-1.7-3.7-3.7s1.6-3.7,3.7-3.7,3.7,1.6,3.7,3.7c0,2.1-1.6,3.7-3.7,3.7ZM138.6,76.6c-2.2,0-4.1,1.8-4.1,4.1s1.8,4.1,4.1,4.1,4.1-1.8,4.1-4.1-1.8-4.1-4.1-4.1ZM63.9,80.5h-1v-1.9h1.3c.6,0,1.2.2,1.2.9s-.8.9-1.5.9h0ZM64.6,80.8c.7-.1,1.2-.5,1.2-1.3s-.5-1.3-1.6-1.3h-1.8v4.8h.4v-2.2h1.2l1.5,2.2h.4l-1.4-2.2h0ZM63.9,84.3c-2.1,0-3.7-1.7-3.7-3.7s1.6-3.7,3.7-3.7,3.6,1.6,3.6,3.7-1.6,3.7-3.6,3.7ZM63.9,76.6c-2.2,0-4.1,1.8-4.1,4.1s1.8,4.1,4.1,4.1c2.2,0,4.1-1.8,4.1-4.1,0-2.2-1.8-4.1-4.1-4.1ZM248.1,33.3v-3h-3.3v3h3.3ZM248.1,34.8h-3.3v12.5h3.3v-12.5ZM264.9,47.3v-16.9h-3.3v16.9h3.3ZM186.2,47.3v-16.9h-3.3v16.9h3.3ZM257.3,39.8h-5.1c.2-1.7,1-2.6,2.6-2.6s2.3.6,2.5,2.6ZM208.4,39.8h-5.1c.2-1.7,1-2.6,2.6-2.6s2.3.6,2.5,2.6ZM272,44.9c-2.1,0-2.7-2.3-2.7-3.8s.7-3.8,2.8-3.8,2.8,2,2.8,4-.8,3.6-2.9,3.6h0ZM171,37v-3.7h4c1.6,0,2.6.4,2.6,1.8s-1.1,1.9-2.5,1.9h-4.1ZM171,44.4v-4.5h4.5c1.3,0,2.5.6,2.5,2s-1,2.5-2.7,2.5h-4.3s0,0,0,0ZM199.2,47.3v-12.5h-3.3v7.2c0,2.2-1.5,2.8-2.5,2.8s-2.1-.4-2.1-2.3v-7.8h-3.3v8.2c0,3.2,1.8,4.6,4.2,4.6s3-.7,3.8-2.1h0v1.8h3.1ZM243.1,47.3v-8.6c0-2.8-1.9-4.2-4.3-4.2s-3.2.9-3.6,1.9h0v-6h-3.3v16.9h3.3v-7.2c0-1.9,1.1-2.9,2.6-2.9,2.1,0,2.1,1.6,2.1,2.5v7.6h3.3ZM211.6,43.6h-3.4c-.3.9-1.2,1.4-2.1,1.4-2.6,0-2.8-2.1-2.9-3h8.6v-.6c0-5.7-3.4-6.9-5.9-6.9-5.5,0-6,4.8-6,6.3,0,5.1,2.7,6.8,6.2,6.8,2.1,0,4.6-1,5.5-4h0ZM260.6,43.6h-3.4c-.3.9-1.2,1.4-2.1,1.4-2.6,0-2.8-2.1-2.9-3h8.6v-.6c0-5.7-3.4-6.9-5.9-6.9-5.5,0-6,4.8-6,6.3,0,5.1,2.7,6.8,6.2,6.8,2.1,0,4.6-1,5.5-4h0ZM278,47.3v-16.9h-3.3v6h0c-.5-.8-1.5-1.9-3.6-1.9s-5.2,2.1-5.2,6.4,1.5,6.7,5.3,6.7,2.8-.5,3.6-1.9h0v1.6h3.2,0ZM220.4,42.1h-3.4c0,2.1,1.1,5.6,7.2,5.6s6.6-.4,6.6-5.5-2.1-4-4.4-4.5l-4.1-1c-.7-.2-1.8-.4-1.8-1.8s1.6-2,2.9-2c3.1,0,3.4,1.8,3.4,2.5h3.4c0-2.1-1.4-5.4-6.6-5.4s-6.5,3.3-6.5,5.2c0,3.7,2.6,4.3,5.3,5l1.8.4c1.8.4,3,.8,3,2.1s-1.9,2.2-3.5,2.2c-3.1,0-3.5-1.8-3.6-2.7h0ZM167.6,30.4v16.9h7.1c3.4,0,4.4-.6,5.3-1.5.9-.9,1.5-2.2,1.5-3.5,0-1.7-.5-3.3-2.6-4.1.7-.4,2.1-1,2.1-3.4s-1.1-4.3-5.2-4.3h-8.2ZM186.2,26.7V9.9h-3.3v16.8h3.3ZM208.4,19.3h-5.1c.2-1.6,1-2.6,2.6-2.6s2.3.6,2.5,2.6ZM246,16.7c2.5,0,3,2.2,3,3.8s-.5,3.8-3,3.8-3-2.2-3-3.8.5-3.8,3-3.8ZM171,16.5v-3.7h4c1.6,0,2.6.4,2.6,1.8s-1.1,1.9-2.5,1.9h-4.1ZM171,23.8v-4.5h4.5c1.3,0,2.5.6,2.5,2s-1,2.5-2.7,2.5h-4.3ZM232.6,14.3v12.5h3.3v-6.5c0-1.4.5-3,3-3s.7,0,.9,0v-3.3c-.2,0-.4,0-.6,0-2,0-2.7,1.2-3.4,2.5h0v-2.2h-3.1s0,0,0,0ZM199.2,26.7v-12.5h-3.3v7.2c0,2.2-1.5,2.8-2.5,2.8s-2.1-.4-2.1-2.3v-7.7h-3.3v8.2c0,3.2,1.8,4.6,4.2,4.6s3-.7,3.8-2.1h0v1.8h3.1s0,0,0,0ZM272,18.1h3.2c-.3-3.5-3.2-4.1-5.6-4.1-3.9,0-5,2.3-5,4.2,0,4.7,7.7,3.1,7.7,5.2s-.4,1.3-2.1,1.3-2.7-.8-2.7-1.8h-3.4c0,3.3,3.2,4.3,6,4.3s5.5-.7,5.5-4.3-7.8-3.2-7.8-5.1.2-1.2,2-1.2c1.8,0,2.1.8,2.2,1.6ZM260.3,18.1h3.2c-.3-3.5-3.2-4.1-5.6-4.1-3.9,0-5,2.3-5,4.2,0,4.7,7.7,3.1,7.7,5.2s-.4,1.3-2.1,1.3-2.7-.8-2.7-1.8h-3.4c0,3.3,3.2,4.3,6,4.3s5.5-.7,5.5-4.3-7.8-3.2-7.8-5.1.2-1.2,2-1.2,2.1.8,2.2,1.6ZM211.6,23.1h-3.4c-.3.9-1.2,1.4-2.1,1.4-2.6,0-2.8-2.1-2.9-3h8.6v-.6c0-5.7-3.4-6.9-5.9-6.9-5.5,0-6,4.8-6,6.3,0,5.1,2.7,6.8,6.2,6.8,2.1,0,4.6-1,5.5-4h0ZM246,27.1c3.4,0,6.4-2.1,6.4-6.6s-3-6.6-6.4-6.6-6.4,2.1-6.4,6.6,3,6.6,6.4,6.6ZM167.6,9.9v16.8h7.1c3.4,0,4.4-.6,5.3-1.5.9-.9,1.5-2.2,1.5-3.5,0-1.7-.5-3.3-2.6-4.1.7-.4,2.1-1,2.1-3.4s-1.1-4.3-5.2-4.3h-8.2ZM228.6,15.4h3.5c-.2-2.5-2.2-6-7.3-6s-7.7,3-7.7,8.9,3.2,8.8,7.7,8.8,6.6-2.6,7.3-6.2h-3.5c-.4,2.1-1.8,3.2-3.7,3.2-3,0-4.2-2.7-4.2-5.7,0-4.8,2.5-5.9,4.2-5.9,2.9,0,3.4,1.9,3.7,2.9Z"/>
  <path class="st0" d="M55.4,35c-2.3-3-5.6-5.2-9.2-6.3.4.7.5,1.5.5,2.4,0,1.3-.5,2.6-1.3,3.7,0,0,0,0,.1-.1,0,0-.2.2-.2.3,0,0,0,0,0,0h10.1ZM35.9,28.7c-3.6,1.1-6.8,3.3-9.2,6.3,3.8,0,8.9,0,10.2,0,0,0,0,0,0,0,0-.1-.2-.2-.2-.3,0,0,0,0,.1.1-.9-1-1.3-2.3-1.3-3.7,0-.8.2-1.6.5-2.4h0ZM22.9,46.2c0,4.4,1.6,8.7,4.5,12,1.9-3.7,5.3-9.9,6.8-13.1.6-1.2.7-1.8.7-2.1-.1,0-.4-.1-.8-.2l-10.7-.9c-.3,1.4-.5,2.9-.5,4.3ZM54.7,58.1c2.9-3.3,4.5-7.6,4.5-12,0-1.5-.2-2.9-.5-4.3l-10.7.9c-.4,0-.7.2-.8.2,0,.3.2.9.7,2.1,1.5,3.2,4.8,9.4,6.8,13.1h0ZM33.3,62.6c2.4,1.1,5.1,1.7,7.8,1.7,2.7,0,5.4-.6,7.8-1.7-2.2-3.2-6.1-8.9-7.8-11.3l-7.8,11.3h0ZM28.1,62.4c-4.9-3.9-7.8-9.9-7.8-16.2,0-2.5.4-4.9,1.2-7.1l12.9,1.1c3.3.6,3.9,2.2,2.1,6-2.3,4.8-8.5,16.2-8.5,16.2h0ZM54,62.4s-6.2-11.4-8.5-16.2c-1.8-3.8-1.2-5.4,2.1-6l12.9-1.1c.8,2.2,1.2,4.6,1.2,7.1,0,6.3-2.9,12.3-7.8,16.2h0ZM41,66.9c-4.3,0-8.2-1.2-11.5-3.4l10.2-14.7c.3-.5.9-.7,1.4-.8.5,0,1.1.3,1.4.8l10.2,14.7c-3.3,2.2-7.3,3.4-11.5,3.4ZM41,28c-1.7,0-3.1,1.4-3.1,3.1,0,0,0,0,0,0,0,.7.3,1.4.7,2,.3.4.6.8.8,1.1.7,1,.4,3.5-2.3,3.5h-15.1c3.4-7.5,10.8-12.2,18.9-12.2,8.4,0,15.7,5,18.9,12.2h-15c-2.6,0-3-2.5-2.3-3.4.2-.3.5-.7.8-1.1.4-.5.7-1.2.7-2,0-1.7-1.3-3.1-3-3.1,0,0,0,0,0,0h0ZM78.5,29.2h-20.4V8.7H24v20.4H3.6v34h20.4v20.4h34v-20.4h20.4V29.2h0Z"/>
</svg>