<?xml version="1.0" encoding="UTF-8"?>
<svg id="Layer_1" xmlns="http://www.w3.org/2000/svg" version="1.1" viewBox="0 0 282.5 92.5">
  <!-- Generator: Adobe Illustrator 29.1.0, SVG Export Plug-In . SVG Version: 2.1.0 Build 142)  -->
  <defs>
    <style>
      .st0 {
        fill: none;
      }

      .st1 {
        fill: #03cc54;
      }

      .st2 {
        fill: #03f;
      }
    </style>
  </defs>
  <path class="st0" d="M215,83.7c-1,0-1.7.8-1.9,1.9h3.8c-.1-1.1-.8-1.9-1.9-1.9Z"/>
  <path class="st0" d="M165.1,87.6h0c0,.7.6,1.1,1.4,1.1s1.9-.6,1.9-1.5v-.4c-.5-.2-1.1-.3-1.7-.3-1.1,0-1.7.4-1.7,1.2Z"/>
  <path class="st0" d="M200.4,46.8c-5.7,0-8,5.6-8,12.4s2.4,12.4,8,12.4,8-5.6,8-12.4-2.4-12.4-8-12.4Z"/>
  <path class="st0" d="M126,85.9c5.3,0,8.2-3.1,8.2-6.1s-1.5-4.8-5.7-4.8h-7.1c-1.8,1-3.1,3.2-3.1,5.4,0,3.3,2.8,5.5,7.7,5.5Z"/>
  <path class="st0" d="M158.7,83.7c-1,0-1.7.8-1.9,1.9h3.8c-.1-1.1-.7-1.9-1.9-1.9Z"/>
  <path class="st0" d="M125.7,46.5c-3.5,0-5.8,3-5.8,7.9s2.3,7.9,5.8,7.9,5.8-3,5.8-7.9-2.3-7.9-5.8-7.9Z"/>
  <path class="st0" d="M199.4,87.6h0c0,.7.6,1.1,1.4,1.1s1.9-.6,1.9-1.5v-.4c-.5-.2-1.1-.3-1.7-.3-1.1,0-1.7.4-1.7,1.2Z"/>
  <path class="st2" d="M150.9,82.3c-.9,0-1.8.5-2.3,1.3v-3.9h-1.7v10.1h1.7v-4.1c0-1.1.7-1.8,1.7-1.8s1.6.7,1.6,1.8v4.2h1.7v-4.7c0-1.7-1-2.8-2.6-2.8Z"/>
  <path class="st2" d="M158.7,82.3c-2.1,0-3.6,1.7-3.6,3.8h0c0,2.3,1.6,3.8,3.8,3.8,1.2,0,2.3-.5,3-1.4l-1-.9c-.5.6-1.2.9-2,.9-1.1,0-2-.8-2.1-1.9h5.4c0-.2,0-.3,0-.5,0-2.1-1.2-3.9-3.5-3.9ZM156.8,85.7c.2-1.1.9-1.9,1.9-1.9s1.7.8,1.9,1.9h-3.8Z"/>
  <path class="st2" d="M161.7,73c0-1.4-.5-1.5-.5-1.5h-.8c-1.3,0-2.5-1.3-2.5-2.5v-12.9c0-5.2,3.1-8.3,7.1-8.3s6,1.9,6,6.1v15.2c0,1.3-1.3,2.5-2.5,2.5h-.8s-.5.1-.5,1.4c0,.7.1,1.4.5,2h15s.5-.6.5-1.9-.5-1.6-.5-1.6h-.8c-1.3,0-2.5-1.3-2.5-2.5v-15.4c0-7.3-4.6-10.9-11.2-10.9s-8.7,2.3-10.9,5.7v-3.7c0-1.1-1-1.5-2.3-1-.8.3-5.1,1.8-8.7,1.8-.4.5-.5,1.1-.5,1.7,0,.6.2,1.2.5,1.7h.7c1.3,0,2.5,1.3,2.5,2.5v17.6c0,1.3-1.3,2.5-2.5,2.5h-.8s-.5,0-.5,1.5.5,2,.5,2h15s.5-.5.5-1.9Z"/>
  <path class="st2" d="M133.9,44.9c-2.5-1.6-5.3-2.4-8.3-2.4-7.9,0-13.6,5.3-13.6,11.9s2.2,7.4,5.3,9.4l-5.3,6.6c-.4.8-.6,1.6-.7,2.5,0,.8.3,1.5.8,2h3.8c-2.8,1.6-4.1,4.4-4.1,6.7,0,4.6,4,8.3,12.9,8.3s17.4-4.8,17.4-12.2-3.2-8.9-11.1-8.9h-12l2.3-3.2c1.4.5,2.8.7,4.3.6,7.8,0,13.6-5.3,13.6-11.9,0-2-.5-3.9-1.6-5.6h4.6c.4-.6.5-1.3.5-2,0-.7-.2-1.3-.5-1.9h-8.5ZM121.4,74.9h7.1c4.2,0,5.7,2.4,5.7,4.8s-2.9,6.1-8.2,6.1-7.7-2.2-7.7-5.5c0-2.2,1.3-4.5,3.1-5.4h0ZM125.7,62.3c-3.5,0-5.8-3-5.8-7.9s2.3-7.9,5.8-7.9,5.8,3,5.8,7.9-2.3,7.9-5.8,7.9Z"/>
  <path class="st2" d="M88.5,64.3c-.6-.2-1.2-.2-1.9,0-2.4,4.1-4.5,6-7.8,6-6,0-9.8-5.4-9.8-11.8s2.7-11.8,8.8-11.8,6.9,2.4,6.9,6.1v1.1c0,0,0,.5,1.6.5s2.1-.5,2.1-.5l-.3-8.3c0-.1,0-.3-.1-.4,0-.1-.2-.2-.3-.3-2.5-1.4-5.8-2.2-9.7-2.2-9.1,0-17.6,6.1-17.6,17.1s7.4,16.1,16,16.1,11.7-5,13.4-10.6c-.3-.4-.8-.7-1.2-.9Z"/>
  <path class="st2" d="M100,40.3c3,0,5.5-2.3,5.5-5.3,0-3-2.3-5.5-5.3-5.5-3,0-5.5,2.3-5.5,5.3,0,0,0,0,0,.1,0,2.9,2.3,5.4,5.3,5.4Z"/>
  <path class="st2" d="M104.2,50.2c0-1.3,1.3-2.5,2.5-2.5h.8s.5-.3.5-1.6c0-.7-.1-1.3-.5-1.9h-15c-.3.6-.5,1.3-.5,2,0,1.2.5,1.4.5,1.4h.8c1.3,0,2.5,1.3,2.5,2.5v18.7c0,1.3-1.3,2.5-2.5,2.5h-.8s-.5.2-.5,1.5c0,.7.2,1.4.5,2h15c.4-.6.5-1.2.5-1.9,0-1.2-.5-1.6-.5-1.6h-.8c-1.3,0-2.5-1.3-2.5-2.5v-18.7h0Z"/>
  <path class="st2" d="M201.2,82.4c-1,0-1.9.2-2.8.6l.5,1.3c.7-.3,1.4-.5,2.1-.5,1.2,0,1.8.6,1.8,1.6h0c-.7,0-1.3-.2-2-.2-1.7,0-3,.8-3,2.4h0c0,1.5,1.2,2.3,2.6,2.3.9,0,1.8-.4,2.4-1.1v.9h1.7v-4.3c0-2-1.1-3.1-3.2-3.1ZM202.8,87.2c0,.9-.8,1.5-1.9,1.5s-1.4-.4-1.4-1.1h0c0-.7.6-1.2,1.7-1.2.6,0,1.1.1,1.7.3v.4h0Z"/>
  <path class="st2" d="M208.1,84.1v-1.7h-1.7v7.3h1.7v-2.8c0-1.9,1-2.9,2.5-2.9h0v-1.8c-1.3,0-2.1.7-2.6,1.8Z"/>
  <path class="st2" d="M220.6,70.4c0-1-.5-1.3-.5-1.3h-.8c-1.3,0-2.5-1.3-2.5-2.5v-22.4c0-.4-.4-.7-.8-.7h-1.9c-.3,0-.5.1-.7.3l-2.7,3.5c-.1.2-.4.2-.6,0,0,0,0,0,0,0h0c-1.8-2.1-4.8-4.7-10.3-4.7-8.2,0-16,6-16,16.9s6.7,16.3,15,16.3,7.7-2,10.1-5v3.8c0,.5.5,1,1,1.1.5.1,1,0,1.5,0l8.8-3.8c.3-.4.5-.9.5-1.4ZM200.4,71.6c-5.7,0-8-5.6-8-12.4s2.3-12.4,8-12.4,8,5.6,8,12.4-2.4,12.4-8,12.4h0Z"/>
  <path class="st2" d="M220.5,83.8h-.4c-.1-.1-.2-.1-.3-.2,0,0-.1-.1-.1-.2,0,0,0-.2.1-.2,0,0,.2,0,.3,0,0,0,.2,0,.3,0,.1,0,.2.2.2.3h.5c0-.2,0-.4-.3-.6-.2-.1-.4-.2-.6-.2-.2,0-.5,0-.7.2-.1.1-.2.3-.2.5,0,.2,0,.4.2.5.2,0,.3.1.5.2h.2c.1,0,.2.1.3.2,0,0,.1.1.1.2,0,.1,0,.2-.2.3,0,0-.2,0-.3,0-.2,0-.3,0-.4-.2,0,0,0-.2,0-.2h-.5c0,.2,0,.4.3.6.2.1.5.2.7.2.2,0,.5,0,.7-.2.2-.1.2-.3.2-.5,0-.2,0-.4-.2-.5-.1,0-.3-.1-.4-.2Z"/>
  <path class="st2" d="M166.8,82.4c-1,0-1.9.2-2.8.6l.5,1.3c.7-.3,1.4-.5,2.1-.5,1.2,0,1.8.6,1.8,1.6h0c-.7,0-1.3-.2-2-.2-1.7,0-3,.8-3,2.4h0c0,1.5,1.2,2.3,2.6,2.3.9,0,1.8-.4,2.4-1.1v.9h1.7v-4.3c0-2-1.1-3.1-3.2-3.1ZM168.4,87.2c0,.9-.8,1.5-1.9,1.5s-1.4-.4-1.4-1.1h0c0-.7.6-1.2,1.7-1.2.6,0,1.1.1,1.7.3v.4h0Z"/>
  <path class="st2" d="M215.1,82.3c-2.1,0-3.6,1.7-3.6,3.8h0c0,2.3,1.6,3.8,3.8,3.8,1.2,0,2.3-.5,3-1.4l-1-.9c-.5.6-1.2.9-2,.9-1.1,0-2-.8-2.1-1.9h5.4c0-.2,0-.3,0-.5,0-2.1-1.2-3.9-3.5-3.9ZM213.1,85.7c.2-1.1.9-1.9,1.9-1.9s1.7.8,1.9,1.9h-3.8Z"/>
  <path class="st2" d="M193.8,88.5c-1.3,0-2.2-1.1-2.2-2.4h0c0-1.3.9-2.4,2.1-2.4.7,0,1.4.3,1.9.9l1-1.1c-.7-.8-1.8-1.3-2.9-1.3-2.1,0-3.8,1.7-3.8,3.8,0,0,0,0,0,0h0c0,2.2,1.8,3.8,3.9,3.8,1.1,0,2.2-.5,2.9-1.4l-1-1c-.5.6-1.2.9-1.9.9Z"/>
  <rect class="st2" x="172.1" y="79.7" width="1.7" height="10.1"/>
  <path class="st2" d="M178,80.5h-1.7v2h-.9v1.4h.9v3.9c0,1.6.9,2.2,2.1,2.2.5,0,1.1-.1,1.5-.4v-1.4c-.3.2-.7.3-1,.2-.6,0-.9-.3-.9-.9v-3.6h2v-1.4h-2v-2h0Z"/>
  <path class="st2" d="M185.7,82.3c-.9,0-1.8.5-2.3,1.3v-3.9h-1.7v10.1h1.7v-4.1c0-1.1.7-1.8,1.7-1.8s1.6.7,1.6,1.8v4.2h1.7v-4.7c0-1.7-1-2.8-2.6-2.8Z"/>
  <path class="st1" d="M96.1,16.5c0-3.3,1.4-6.4,3.9-8.5,4.7,4,5.2,11,1.3,15.6-.4.5-.8.9-1.3,1.3-2.5-2.1-3.9-5.2-3.9-8.5M108,7.8c-1,2.3-.8,4.9.3,7.1,4.4-1.4,6.9-6.1,5.5-10.6-.1-.4-.3-.9-.5-1.3-2.4.7-4.3,2.5-5.2,4.8M86.5,10.1c.9,2.3,2.8,4,5.2,4.8,2.1-4.1.5-9.2-3.6-11.3-.4-.2-.8-.4-1.3-.5-1.1,2.2-1.3,4.8-.3,7.1M72.8,26.9c2.3,1,4.9.8,7.1-.3-1.4-4.4-6.1-6.9-10.6-5.5-.4.1-.9.3-1.3.5.7,2.4,2.5,4.3,4.8,5.2M124.8,21.5c-2.3.9-4.1,2.9-4.8,5.2,4.1,2.1,9.2.5,11.3-3.6.2-.4.4-.8.5-1.3-2.2-1.1-4.8-1.3-7.1-.3M118.4,31.1c-3.3,0-6.4,1.4-8.5,3.9,3.9,4.7,10.9,5.3,15.6,1.3.5-.4.9-.8,1.3-1.3-2.1-2.5-5.2-3.9-8.5-3.9M110.2,19.2c-2.3,2.3-3.5,5.5-3.2,8.7,6.1.5,11.5-4,12-10.1,0-.6,0-1.2,0-1.9-3.2-.3-6.5.9-8.8,3.2M81.6,31.1c-3.3,0-6.4,1.4-8.5,3.9,4,4.7,11,5.2,15.6,1.3.5-.4.9-.8,1.3-1.3-2.1-2.5-5.2-3.9-8.5-3.9M89.7,19.2c-2.3-2.3-5.5-3.5-8.8-3.2-.5,6.1,4,11.4,10.1,11.9.6,0,1.2,0,1.9,0,.3-3.3-.9-6.5-3.2-8.8"/>
</svg>