<?xml version="1.0" encoding="UTF-8"?>
<svg id="Layer_1" xmlns="http://www.w3.org/2000/svg" version="1.1" viewBox="0 0 282.5 92.5">
  <!-- Generator: Adobe Illustrator 29.1.0, SVG Export Plug-In . SVG Version: 2.1.0 Build 142)  -->
  <defs>
    <style>
      .st0 {
        fill: #125d34;
      }

      .st1 {
        fill: #b38d44;
      }
    </style>
  </defs>
  <g id="g18847">
    <path id="path18859" class="st1" d="M26.1,49.9h10.3l3,1.9h-13.8l-6.2,19.1c-6.8-2.6-13.1-8.8-15.8-15.7-2.8-6.7-2.8-15.1,0-21.8,2.7-6.9,9.2-13.1,16.1-15.7,5.4-2.3,12.7-2.5,18.5-.7,6.6,1.9,12.9,6.6,16.5,12.8,4.1,6.8,5.2,15.4,2.7,23.2-1.6,5.1-4.8,10.1-9.2,13.6l-7.6-12.7,10.6,5.9c0,0,0,0,0-.1l-13.8-12,17.9,2.7c0,0,0,0,0,0h-.1c0,0-16.9-6-16.9-6l17.6-4.2c0,0,0,0,0,0l-18,1.2,14.1-10.7c0,0,0,0-.1,0l-15.8,8,8.7-15.4s0,0,0,0l-11.4,13.4,2.2-17.6s0,0-.1,0l-5.3,17.1-4.6-17.6s0,0-.1,0l1.3,18.3-10.8-14.1s0,0,0,0l8.2,15.6-15.5-8.5s0,0,0,0l13.8,11.3-17.6-1.9c0,0,0,0,0,.1l17.1,5-17,5s0,0,0,.1l17.5-2-13.8,11.7s0,0,0,0h.2c0,0,11-5.8,11-5.8l2.6-4.1h2.9l-2-1.4,6.8-10.9-4,12.9h0"/>
    <g id="g18861">
      <path id="path18863" class="st0" d="M76.9,64.3h-13.7l11-39.3h28.2l-2.7,9.3h-14.4l-1.8,6.7h14.4l-2.4,8.6h-14.4l-4.1,14.7Z"/>
    </g>
    <g id="g18865">
      <path id="path18867" class="st0" d="M117.5,32.8h-13.6l2.2-7.8h13.6l-2.2,7.8ZM108.7,64.3h-13.6l8.1-28.7h13.6l-8.1,28.7Z"/>
    </g>
    <g id="g18869">
      <path id="path18871" class="st0" d="M133.7,44.1c-1.2,0-2.4.4-3.1,2.1-1,2.4-1.9,4.8-1.9,7.2s.8,2.1,2.1,2.1,1.7-.3,2.3-.7l2.7-9.4c-.5-.7-1.3-1.2-2.2-1.2M143.9,64.3h-13.3l.9-3.2c-2.7,2.3-5.4,3.9-9.8,3.9s-7.2-2.1-7.2-6.6,1.9-12.3,4.8-17.5c2.1-3.8,5.9-5.8,10.4-5.8s6.7,1.7,7.8,3.8l3.8-13.8h13.6l-11,39.3Z"/>
    </g>
    <g id="g18873">
      <path id="path18875" class="st0" d="M168.7,42.1c-1.7,0-2.8,1.2-3.6,4.1h5.6c.2-.6.4-1.5.4-2,0-1.6-.9-2-2.4-2M182.3,51.7h-18.7c-.4,1.5-.7,2.6-.7,3.8s.1,2.1,2,2.1,2.7-.7,3.5-3.5h13.3c-1.7,8.2-11.4,10.9-17.3,10.9s-14.3-1.2-14.3-8.9,2.2-11.3,5-15.1c3.4-4.5,9.4-6.2,14.8-6.2,8.4,0,13.9,1.7,13.9,8.9s-.7,5.6-1.5,8"/>
    </g>
    <g id="g18877">
      <path id="path18879" class="st0" d="M195.9,64.3h-13.6l11-39.3h13.6l-11,39.3Z"/>
    </g>
    <g id="g18881">
      <path id="path18883" class="st0" d="M222.7,32.8h-13.6l2.2-7.8h13.6l-2.2,7.8ZM213.9,64.3h-13.6l8.1-28.7h13.6l-8.1,28.7Z"/>
    </g>
    <g id="g18885">
      <path id="path18887" class="st0" d="M247.1,35.6l1.2,6.5h-10.4l-3.1,10.9c-.3.8-.5,1.9-.5,2.6,0,1.3.5,1.7,2.4,1.7h2.9l-2,7.1h-12.1c-4,0-5.5-1.9-5.5-4.9s.2-2.5.6-4l7.4-26.2h13.6l-1.8,6.4h7.4Z"/>
    </g>
    <g id="g18889">
      <path id="path18891" class="st0" d="M62.9,68.7h3.4s-2.2,7.1-2.2,7.1h-3.4l2.1-7.1Z"/>
    </g>
    <g id="g18893">
      <path id="path18895" class="st0" d="M74.7,68.7h5s1.3,4.7,1.3,4.7h0l1.4-4.7h2.9s-2.2,7-2.2,7h-4.7s-1.4-5-1.4-5h0l-1.5,5h-2.9s2.1-7,2.1-7Z"/>
    </g>
    <g id="g18897">
      <path id="path18899" class="st0" d="M91.8,68.7h3.7s.7,4.4.7,4.4l3.4-4.4h3.4s-5.7,7-5.7,7h-4.1s-1.4-7-1.4-7Z"/>
    </g>
    <g id="g18901">
      <path id="path18903" class="st0" d="M109.5,68.7h7.7s-.4,1.4-.4,1.4h-4.4s-.4,1.5-.4,1.5h4.2s-.4,1.4-.4,1.4h-4.2s-.4,1.4-.4,1.4h4.5s-.5,1.4-.5,1.4h-7.7s2.2-7.1,2.2-7.1Z"/>
    </g>
    <g id="g18905">
      <path id="path18907" class="st0" d="M142.6,70.4h-2.6s.5-1.7.5-1.7h8.7s-.5,1.7-.5,1.7h-2.6s-1.6,5.3-1.6,5.3h-3.4s1.6-5.3,1.6-5.3Z"/>
    </g>
    <g id="g18909">
      <path id="path18911" class="st0" d="M156.1,68.7h5.1s.2,4.7.2,4.7h0l3.1-4.7h5.2s-2.1,7.1-2.1,7.1h-3.1s1.6-5.3,1.6-5.3h0l-3.8,5.3h-3.3s-.5-5.3-.5-5.3h0l-1.6,5.3h-2.9s2.1-7,2.1-7Z"/>
    </g>
    <g id="g18913">
      <path id="path18915" class="st0" d="M191.3,68.7h4.9s1.3,4.7,1.3,4.7h0l1.4-4.7h2.9l-2.1,7.1h-4.8s-1.3-5-1.3-5h0l-1.5,5h-2.9s2.2-7,2.2-7Z"/>
    </g>
    <g id="g18917">
      <path id="path18919" class="st0" d="M210,70.4h-2.6s.5-1.7.5-1.7h8.7s-.5,1.7-.5,1.7h-2.6s-1.6,5.3-1.6,5.3h-3.4s1.6-5.3,1.6-5.3Z"/>
    </g>
    <g id="g18929">
      <path id="path18931" class="st0" d="M127.6,70.8c0,0,0-.2,0-.3.1-.4.6-.6,1.3-.6.4,0,1.1,0,1.3.2.2.1.3.4.2.6h3c.4-1.3-.4-2.1-3.8-2.1-3.2,0-5,.7-5.5,2.2-.1.4-.1.9.2,1.2.8.8,4.6,1.2,4.9,1.6,0,0,0,.2,0,.3-.2.6-1,.7-1.7.7s-1,0-1.2-.3c-.2-.2-.2-.5,0-.7h-3.1c-.3,1.1-.4,2.2,3.9,2.2,3.7,0,5.3-.9,5.8-2.3.2-.7,0-1.1-.2-1.3-.8-.8-4.4-1.1-4.8-1.6"/>
    </g>
    <g id="g18933">
      <path id="path18935" class="st0" d="M176.6,68.7h7.7s-.4,1.4-.4,1.4h-4.4s-.4,1.5-.4,1.5h4.2s-.4,1.4-.4,1.4h-4.2s-.4,1.4-.4,1.4h4.5s-.5,1.4-.5,1.4h-7.7s2.2-7.1,2.2-7.1Z"/>
    </g>
    <g id="g18937">
      <path id="path18939" class="st0" d="M265.4,35.6l-7.4,15.9.2-15.9h-13.7l2.6,28.7c-.3,1.7-.9,2.6-1.9,3.1-1.2.5-3.8.4-4.7.4h-.2s-2.2,7.8-2.2,7.8h9.3c5.5,0,8.2-2.7,12.1-8.8l19.8-31.1h-13.9Z"/>
    </g>
    <g id="g18941">
      <path id="path18943" class="st0" d="M225.3,70.8c0,0,0-.2,0-.3.1-.4.6-.6,1.3-.6.4,0,1.1,0,1.3.2.2.1.3.4.2.6h3c.4-1.3-.4-2.1-3.8-2.1-3.2,0-5,.7-5.5,2.2-.1.4-.1.9.2,1.2.8.8,4.6,1.2,4.9,1.6,0,0,0,.2,0,.3-.2.6-1,.7-1.7.7s-1,0-1.2-.3c-.2-.2-.2-.5,0-.7h-3.1c-.3,1.1-.4,2.2,3.9,2.2,3.7,0,5.3-.9,5.8-2.3.2-.7,0-1.1-.2-1.3-.8-.8-4.4-1.1-4.8-1.6"/>
    </g>
  </g>
</svg>