<?xml version="1.0" encoding="UTF-8"?>
<svg id="Layer_8" xmlns="http://www.w3.org/2000/svg" version="1.1" viewBox="0 0 282.5 92.5">
  <!-- Generator: Adobe Illustrator 29.1.0, SVG Export Plug-In . SVG Version: 2.1.0 Build 142)  -->
  <defs>
    <style>
      .st0 {
        fill: #fff;
      }

      .st1 {
        fill: #0093d0;
      }
    </style>
  </defs>
  <path class="st1" d="M86.9,58.9c0-3.6-5-5.9-11-5.7-8.1,0-16.5,2.3-18.9,3-1.1.3-1.7,1.1-1.4,2,.2,1,1.1,1.5,1.8,1.5,1.1,0,3.3-1.1,8.1-1.8-2.7,4.4-10.4,16.7-14.3,22.8h-1.1c-1.4,0-2.6,1.1-2.6,2.6s2,2.5,5.3,2.5c19.2,0,27-4.1,27-10.2s-6.2-7.1-6.2-8c0-1.3,13.1-3.1,13.1-8.6M74.3,77c0,4.7-11.6,4.7-16.8,4.1,4.3-6.8,12.8-20,15.1-23.7h2.3c2.5,0,5.8.7,5.8,2.3,0,4.1-13.1,4.7-13.1,8.9s6.7,5.9,6.7,8.3"/>
  <path class="st1" d="M103.7,48.4c-1.4-1-3.1-.5-4,.7-12.8,16.3-17.6,26.7-17.6,32.3s1.7,4.7,4.2,4.7,5.3-2.4,12.9-9.8c-1.7,4.5-1.9,9.8,3.6,9.8s7.2-2.6,12.3-8c-1.1,4.1.6,8.6,4.7,8.6s2-.5,2-1-1.4-1.8-1.4-5.3,2.8-8.9,6.8-14.1c.9-1.2.8-2.9-.4-3.9-1.1-.9-3.1-.9-4,.3-10.1,12.2-15.3,18.2-18.1,18.2s-.6-.3-.6-.8c0-2,2.6-7.5,7.6-14,.9-1.2.7-2.8-.3-3.8-1.2-1.1-3-1-4,0-4.4,5-6.9,7.7-8.9,9.8-8.9,8.7-9.8,9.2-10.4,9.2s-.5-.2-.5-.6c0-3.6,4.2-11.9,16.5-28.5,1-1.4.6-3.2-.7-3.9"/>
  <path class="st1" d="M133.4,81.5c-2.3,0-2.6-2.1-2-3.8,9.2-3,15.3-7.5,15.3-11.6s-2-4.8-5.9-4.8c-8.6,0-15.4,11.3-15.4,18.5s1.7,6.5,5.9,6.5,7.7-1.4,12-4.8c3.2-2.6,4-5.1,2.8-6.2-5.9,5.3-10.7,6.2-12.6,6.2M140.4,66.4c.7,0,1.2.4,1.2.9,0,1.8-4.2,4.4-9,6.3,1.4-3.2,4.4-7.2,7.8-7.2"/>
  <path class="st1" d="M79,6.8c-9.2,0-18.6,2.9-25.9,3.2-.5,1.9,0,4.3,4.1,4.3s3.2-.2,5-.3c-9.2,13.8-11.8,19.7-11.8,24.2s3.4,2.5,4.1.7c1.6-4.2,4.1-8.2,6.6-11.8,5.3,0,12.1-.6,15.6-1,3.6-.5,4.4-1.7,4.7-2.6.3-2.1-1.1-2.7-3.4-2.7s-8.6.5-13.2,1.1c2.6-3.5,4.7-6.5,5.5-8.7,3-.3,6.1-.5,9.1-.5,5.3,0,7.6.3,8.3.8.2-.2.7-.8.7-1.7,0-2.4-2.9-4.8-9.3-4.8"/>
  <path class="st1" d="M103.6,2c-1.4-.9-3-.6-3.9.6-12.6,16.2-17.4,26.4-17.4,31.9s1.7,4.7,4.3,4.7,6.5-2.1,13.9-9.2c-1.4,4.2-.5,9.5,5.1,9.5s12-7.5,14.1-13.5c2.9-.8,6.4-2.4,10.4-4.4-2.3,4.4-5.6,10.9-7.2,13.7-1.1,1.8.2,4.2,2.3,4.2s1.7-.5,2.5-1.4c4.4-6.5,7.9-10.1,14.6-14.5-.8,1.6-.6,3.8,1.1,4.4,1.4.5,3.1,0,3.6-1.4l3.1-8c.5-1.2,0-2.4-.9-3-.9-.7-2-.9-3.2-.2-2.8,1.6-8.9,7.7-12.9,11.5l4.7-8c.6-1,.3-2.6-.6-3.4-1.1-.8-2.4-.8-3.3-.3-4.8,3.2-9,5.6-13.8,7.1-.3-1-1.2-2-2.9-2-2.8,0-5.3,2.1-5.3,4.1s1.8,2.3,3.5,2.3c-2,4.2-6.2,8.1-8.4,8.1s-1.2-.5-1.2-1.8c0-8,7-14.9,12-13.6,1.9.2,1.9-.7,1.9-1.2,0-1.1-1.7-3.2-4.5-3.2s-6.5,1.6-10.7,6.5c-10.7,11.1-15.2,12.9-15.9,12.9s-.5-.2-.5-.6c0-3.5,4.5-11.9,16.3-28,1-1.3.7-3.1-.7-3.9"/>
  <path class="st1" d="M166.5,6.3c-2.3,0-4.7,2.6-4.7,5.6s.5,1.6,2,1.6c2.3,0,5.3-2.3,5.3-5,0-1.5-1-2.2-2.6-2.2"/>
  <path class="st1" d="M226.1,28c-6.2,5.7-9.2,6.5-11.2,6.5s-.7-.2-.7-.7c0-1.8,1.1-4.4,3.4-7.7.9-1.5.8-3.1-.5-4-1.6-1-3.4-.4-4.5,1.1-6.2,8.3-10.6,11.3-12.6,11.3s-.7-.3-.7-.8c0-5.1,10.7-14.8,18.3-13.5,1.1.2,1.7-.4,1.7-1,0-1.1-2.2-3.5-5.9-3.5s-9.7,2.9-13.5,6.8c-10.1,10.7-14.4,11.9-15.1,11.9s-.5-.2-.5-.6c0-3.5,4.3-10.1,17.5-27.7,1.1-1.3.6-3-.8-3.9-1.3-.8-2.9-.5-3.8.7l-10.6,14.2c-1.1-.5-2.3-1-4.7-1-4.2,0-8.6,2.7-12.2,6.2-10.8,10.7-15.6,11.9-16.2,11.9s-.5-.2-.5-.5c0-2.2,2.8-6.8,8.9-14.8.9-1.2.5-3.2-.8-3.8-1.7-1-3.2-.5-4,.6-7.3,9-10,15.2-10,18.6s1.7,4.7,4.3,4.7,6.3-1.9,12.2-7.1c-.8,3.6-.2,7.7,4.1,7.7s6.6-2.1,11.1-6.2c-.5,3.5.8,5.7,4,5.7s5.3-1.5,10.9-6.5c-.6,3.3,0,7.1,4.3,7.1s6.4-1.9,10.9-6.2c-.3,3.3,1.2,5.6,4.7,5.6s7.9-2.5,10.9-5.1c2.4-2.4,3.8-5.6,1.8-6.2M169.6,34.6c-.3,0-.6-.3-.6-.9,0-4.4,8.9-13.6,15.2-13.3-6.7,10.4-12.3,14.2-14.6,14.2"/>
  <polygon class="st1" points="188.1 90.5 188.1 80.1 198.5 80.1 198.5 63.4 188.1 63.4 188.1 52.9 171.4 52.9 171.4 63.4 161 63.4 161 80.1 171.4 80.1 171.4 90.5 188.1 90.5"/>
  <path class="st1" d="M192.6,88.7c0-1.1,1-2.1,2.1-2.1s2.1,1,2.1,2.1-.9,2.1-2.1,2.1c-1.1,0-2.1-1-2.1-2.1M196.4,88.7c0-1.1-.8-1.7-1.7-1.7s-1.8.8-1.8,1.7.8,1.7,1.8,1.7,1.7-.8,1.7-1.7M194.3,89.8h-.3v-2.4h1.1c.6,0,.8.2.8.7s-.3.6-.8.7l.7,1.1h-.4l-.7-1.1h-.5v1.1h0ZM194.6,88.4c.3,0,.8,0,.8-.4s-.3-.4-.6-.4h-.7v.8h.5Z"/>
  <path class="st1" d="M228.5,88.7c0-1.1.9-2.1,2.1-2.1s2.1,1,2.1,2.1-.9,2.1-2.1,2.1c-1.2,0-2.1-1-2.1-2.1M232.4,88.7c0-1.1-.8-1.7-1.7-1.7s-1.8.8-1.8,1.7.8,1.7,1.8,1.7,1.7-.8,1.7-1.7M230.2,89.8h-.3v-2.4h1.1c.6,0,.8.2.8.7s-.3.6-.8.7l.8,1.1h-.4l-.7-1.1h-.5v1.1h0ZM230.6,88.4c.3,0,.8,0,.8-.4s-.3-.4-.5-.4h-.7v.8h.4Z"/>
  <path class="st1" d="M218.6,91c7.2-4,11.6-10.4,13.8-17.3,2.3-7.2,1.9-15.9-.8-21.2-4.1,2.1-8.3,3.2-13.1,3.2-4.8,0-8.9-1.1-13.1-3.2-2.7,5.3-3.2,14-.8,21.3,2.4,6.8,6.8,13.2,14,17.2"/>
  <path class="st0" d="M179.8,61.5h0c-4.1,0-7.7,2.4-9.4,6h7.4c1.1,0,1.5-.7,1.5-1.1s0-.8-.5-1.4c-.5-.7-.2-2,1.1-2.1,1.2,0,1.6,1.4,1.1,2.1-.5.6-.6.8-.5,1.4,0,.5.5,1.1,1.5,1.1h7.4c-1.7-3.6-5.3-6-9.4-6M177.7,66h-4.7c1.1-1.3,2.6-2.3,4.3-2.8-.5.9,0,2,.4,2.6.2,0,0,.2,0,.2M181.9,66c0,0-.2-.2,0-.2.5-.5.9-1.7.4-2.6,1.7.5,3.2,1.4,4.3,2.8,0,0-4.7,0-4.7,0Z"/>
  <path class="st0" d="M177.1,68.8l-6.9-.7c-.5,1.1-.7,2.3-.7,3.6,0,3.3,1.6,6.2,4,8.1h0l4.7-8.9c.3-.7.2-2-1.1-2.1M176.7,70.6l-3.7,7c-1.4-1.6-2.1-3.6-2.1-5.8s0-1.4.2-2.1l5.3.5c.4,0,.4.2.3.5"/>
  <path class="st0" d="M170.1,68.2h0Z"/>
  <path class="st0" d="M189.5,68.2h0Z"/>
  <path class="st0" d="M190.1,71.8c0-1.3-.2-2.5-.7-3.6l-6.9.7c-1.3.2-1.4,1.4-1.1,2.2l4.7,8.9h0c2.4-2,4-4.9,4-8.2M182.8,70.6c0-.2,0-.4.3-.5l5.3-.5c.2.7.2,1.4.2,2.1,0,2.3-.8,4.2-2.2,5.8l-3.6-7Z"/>
  <path class="st0" d="M174,80.4h0,0Z"/>
  <path class="st0" d="M179.2,72.9l-5,7.5c1.7,1.1,3.6,1.7,5.7,1.7s4.1-.6,5.6-1.7l-5-7.5c-.4-.5-.9-.5-1.3,0M179.8,80.7c-1.3,0-2.5-.3-3.6-.8l3.5-5.3q0,0,.2,0t.2,0l3.5,5.3c-1.1.5-2.3.8-3.6.8"/>
  <path class="st0" d="M185.5,80.4h0Z"/>
  <path class="st0" d="M218.7,87.8s0,0,0,0q0,0,0,0h0Z"/>
  <path class="st0" d="M230,56.5c-2.9,1.1-4.7,1.4-6.3,1.6-1.5.2-2.9.4-5,.4h0c-2.2,0-3.5-.2-5-.5-1.7-.2-3.4-.5-6.3-1.6-2,4.8-1.5,11,.3,16.3,2,5.9,5.2,11.2,11.1,14.9,5.9-3.7,9.1-8.9,11.1-14.9,1.7-5.2,2.1-11.4.2-16.2M229.1,70.5c-1.8,7.5-6.4,13.3-10.4,15.8h0c-4.1-2.6-8.6-8.3-10.4-15.8-1-4-1.3-8.5,0-12.1,1.8.5,3.5.9,5.2,1.1,1.7.2,3.5.4,5.2.5h0c1.7,0,3.4-.2,5.1-.5,1.7-.2,3.4-.6,5.2-1.1,1.3,3.5,1.1,8,0,12.1"/>
  <path class="st0" d="M217.5,81.3c-.2.2-.5.5-.5,1.2,0,.5.2.6.3.9,0,.2.3.3.4,0,0-.2-.2-.4,0-.8,0-.4.2-.5.2-.5v-1.2c0,0-.2.2-.4.3"/>
  <path class="st0" d="M217,70.1c.4.8.7,1.1.8,2.2.6,0,1,.2,1.7.3v-2.9c0,0-.3-.2-.9-.2-.8,0-1.1,0-1.1,0v.2s-.5,0-.5.2c0,0,0,0,0,.2"/>
  <path class="st0" d="M220.3,73.3c-.7-.2-2-.4-2.9-.5-.2,0-.4,0-.4-.3s.2-.3.2-.3c0,0,0-.2-.2-.6,0-.2-.2-.6-.5-1-.7.3-1.6.5-1.7,1.4,0,1.3.9,2.1,2.3,2.3.8.2,1.4.2,2.3.3,0,0,.3,0,.5,0,.2,0,.2.2.2.2,0,.2,0,.2,0,.3s-.2.2-.2.2v1.6c0,0,.5,0,1-.3.5-.3.8-.7.9-1.1.2-.5,0-1-.4-1.5-.2-.3-.7-.6-1.1-.8"/>
  <path class="st0" d="M219.4,77.8v-2.6c-.5,0-.7,0-1.3-.2l.2,2.1.6.3.5.3Z"/>
  <path class="st0" d="M219.9,78.6c-.7-.4-1.6-.8-2.2-1.1,0,0-.2-.2-.2-.4,0-.2.2-.2.2-.2v-1.3c0,0-.5,0-.6.2-.2.2-.6.4-.8.7-.4.9,0,1.7.9,2.2.4.2,1,.4,1.4.5.5.2,1.2.7,1.3.9,0,.2,0,.2,0,.2l-.2,1.1s.5,0,.8-.4c.3-.2.5-.6.5-1.1s-.3-1-1.1-1.4"/>
  <path class="st0" d="M218.8,79.9c-.2-.2-.6-.2-.6-.2,0,0,0,2.8.2,4.3,0,.3.2.5.5.5s.5-.2.5-.4c0-.5,0-2.5,0-3.5s0,0,0-.2c-.2-.3-.4-.4-.5-.5"/>
  <path class="st0" d="M221.9,62.6c-.7.3-1.1.9-1.7,1.2,0,0-.2,0-.2,0,0-.3,0-1,0-1.4q0-.2-.2-.4c-.7-.2-1.3-.5-1.7-.7s-.5,0-.5,0c-.2.2,0,.7,0,.7,0,0,.7.2.9.5.2.2.3.5.5.6,0,0,.2.2.3.3.2.2.2.3.2.5,0,0-.3.2-.5.2-.5,0-.8,0-.8,0,0,0,1.1.2,1.4.2.2,0,.4.2.5.2,0,0,.2.3.2.4-.7-.3-1.3-.6-2-.7,0,0,.4,0,.5.2,0,0,.2.2.2.3,0,.5-1,.5-1,.5v.8c.8.2,1.7.2,2.6.3,0,0,.2-.2.2-.3.2-.4.6-.5.9-.9.5-.5,1.1-.9,1.4-1.3.2-.2.3-.2.4-.5.2-.5-.8-1-1.1-.8"/>
  <path class="st0" d="M221.3,67.5c-1.6-.8-3.3-.5-5-1.1-.5-.2-1.1-.4-1.1-.9,0-.3,0-.7.2-.8.4-.2.7.2,1.2.3.4,0,.8,0,1.1,0,.2,0,.3,0,.3-.2s-.2-.2-.3-.2c-.2,0-.3,0-.5-.2-.3-.2-.7-.4-1-.5.3,0,.8,0,1.1,0s1,0,1.3,0c0,0,.2,0,0-.2,0-.2-.2-.2-.4-.4-.2-.3-.4-.6-.8-.8-1.1-.4-2.2-.5-3.2,0-1.4.8-2,2.5-1.3,3.9.5,1.1,1.7,1.7,2.9,2s1.1.2,1.8.3c.8,0,1.4.2,2.2.3.2,0,.5.2.5.3.2.3,0,.6-.3.8,0,.7,0,2,0,2,0,0,3.2-.4,2.6-3.2,0-.6-.6-1.2-1.2-1.5M217.7,63c0,0-.2,0-.2,0-.2,0-.2.2-.4.2-.3,0-.2-.2-.5-.4-.2,0-.2,0-.4-.2.5,0,1.1,0,1.4.3"/>
</svg>