<?xml version="1.0" encoding="UTF-8"?>
<svg id="Layer_1" xmlns="http://www.w3.org/2000/svg" version="1.1" viewBox="0 0 282.5 92.5">
  <!-- Generator: Adobe Illustrator 29.1.0, SVG Export Plug-In . SVG Version: 2.1.0 Build 142)  -->
  <defs>
    <style>
      .st0 {
        fill: #862c91;
      }

      .st1 {
        fill: #5c2b85;
      }

      .st2 {
        fill: #64cae1;
      }

      .st3 {
        fill: #29327e;
      }
    </style>
  </defs>
  <path id="Path_903" class="st1" d="M238,26.3h4.5c-.2-4.5-1.8-8.8-5-12l-5.2,5.2,2.7,6.8c.2,0,2.9,0,2.9,0Z"/>
  <path id="Path_904" class="st0" d="M224.8,8.4v7.5l6.8,2.7,5.2-5.2c-3.4-3.2-7.7-4.8-12-5Z"/>
  <path id="Path_905" class="st3" d="M238,27.5h-2.7l-2.7,6.6v.5l5,5c2.9-3.2,4.8-7.5,5-12h-4.5Z"/>
  <path id="Path_906" class="st2" d="M216.9,18.4l6.6-2.7v-7.2c-4.5.2-8.6,1.8-12,5l5,5c.2,0,.5.2.5,0h0Z"/>
  <path class="st0" d="M96.3,29.3v-.5c-.2-1.6-1.6-2.9-3.2-2.7h-5.9v34.9h8.8v-17.7c0-6.1,4.5-8.8,9.3-8.8v-8.4c-4.1.2-7,.9-9,3.2ZM172.3,26.3c-8.4,0-13.6,4.3-14.3,10.4h8.6s.5-2.9,5.2-2.9,5.7,1.3,5.9,5.4c-6.6.2-21.3,1.3-21.3,12s5,10.2,12.9,10.2,8.8-2,10.9-4.8c.9,2.3,3.4,3.6,5.9,4.1.2,0,.5,0,.7-.2v-21.9c0-1.6-.2-3.2-.7-4.8-2.3-5.2-7.7-7.7-13.8-7.5h0ZM177.7,46.7c-.5,9.3-12.4,9.7-12.4,4.3s6.3-4.3,12.4-5v.7h0ZM207.2,51.2c-.2.5-.5.7-.9.7s-.7-.2-.9-.7l-8.8-25.1h-10l10.6,31c1.8,4.8,6.8,4.1,6.8,4.1l-.9,3.2-1.1,3.9c-.9,2.5-3.4,4.3-6.1,4.1-2,0-4.1-.9-5.7-2.3l-4.5,6.3c1.1,1.3,4.5,3.9,10.9,3.9,10.6,0,13.1-7.2,15.2-13.1l13.4-41h-9.5l-8.3,25.1ZM145.2,29.7c-2.3-2.5-5.4-3.9-9-3.9-8.8,0-16.1,7.2-16.1,17.7s7.2,17.7,16.1,17.7,6.8-1.3,8.8-3.6c0,1.8,1.6,3.4,3.4,3.4h5.4V12.3h-8.6v17.4ZM137.5,53.3c-5,0-8.8-4.3-8.8-9.5s4.1-9.5,8.8-9.5,8.8,4.3,8.8,9.5c0,5.2-3.9,9.5-8.8,9.5h0ZM108.2,26.1v35.1h9.3V26.6c0-.2-.2-.5-.5-.5h-8.8ZM112.8,21.6c2.5,0,4.5-2,4.5-4.5h0c0-2.5-2-4.5-4.5-4.5h0c-2.5,0-4.5,2-4.5,4.5h0c0,2.5,2,4.5,4.5,4.5h0ZM65.2,26.1h-4.3c-.9,0-1.8.9-1.8,1.8v6.3h5.9v26.9h9.3v-26.9h9.3v-8.2h-9.5c.9-3.6,3.6-6.6,7.9-6.6s.9,0,1.6.2v-7.7h-1.6c-9.5-.2-15.6,6.1-16.7,14.1ZM71.4,80.4v-5.9c0-1.3-.7-1.8-1.8-1.8s-1.8.5-2.3,1.1v6.6h-2.3v-13.4h2.5v5c.7-.9,1.8-1.6,3.4-1.6s3.2,1.1,3.2,3.2v6.8h-2.7ZM76.3,75.5c0-2.7,2-5,5-5s4.8,2.3,4.8,5.4v.7h-7c.2,1.1,1.1,2.3,2.7,2.3s2-.2,2.5-.9l1.1,1.6c-.9.9-2.5,1.3-4.1,1.3-2.7-.2-5-2.3-5-5.4ZM81.3,72.5c-1.6,0-2.3,1.1-2.5,2h4.8c0-.9-.5-2-2.3-2ZM94.2,80.4v-.9c-.7.9-1.8,1.3-3.2,1.3s-3.4-1.1-3.4-3.2,1.8-3.2,3.4-3.2,2.5.5,3.2,1.1v-1.1c0-.9-.9-1.6-2-1.6s-2,.5-2.7,1.1l-.9-1.8c1.1-1.1,2.7-1.6,4.3-1.6,2.3,0,4.3.9,4.3,3.6v6.3h-2.9v-.2ZM94.2,77.9v-1.1c-.5-.5-1.1-.9-2-.9s-1.8.5-1.8,1.3.9,1.3,1.8,1.3c.9.3,1.6,0,2-.6h0ZM99.7,80.4v-13.4h2.5v13.4h-2.5ZM105.8,77.9v-5h-1.6v-2.3h1.6v-2.7h2.5v2.7h2v2.3h-2v4.3c0,.7.2,1.1.9,1.1s.7-.2.9-.2l.5,2c-.5.5-1.1.7-2,.7-1.8-.2-2.7-1.2-2.7-3h0ZM118.9,80.4v-5.9c0-1.3-.7-1.8-1.8-1.8s-1.8.5-2.3,1.1v6.6h-2.5v-13.4h2.5v5c.7-.7,1.8-1.6,3.4-1.6s3.2,1.1,3.2,3.2v6.8h-2.5ZM132.5,79.1v5h-2.5v-13.4h2.5v1.1c.7-.9,1.8-1.3,2.9-1.3,2.5,0,4.3,1.8,4.3,5s-1.8,5-4.3,5c-1.1.2-2-.2-2.9-1.4h0ZM137.2,75.5c0-1.6-.9-2.7-2.5-2.7s-1.8.5-2.3,1.1v3.4c.5.7,1.3,1.1,2.3,1.1,1.3,0,2.5-1.1,2.5-2.9h0ZM142,80.4v-13.4h2.5v13.4h-2.5ZM153.3,80.4v-.9c-.7.9-1.8,1.3-3.2,1.3s-3.4-1.1-3.4-3.2,1.8-3.2,3.4-3.2,2.5.5,3.2,1.1v-1.1c0-.9-.9-1.6-2-1.6s-2,.5-2.7,1.1l-1.1-2.3c1.1-1.1,2.7-1.6,4.3-1.6,2.3,0,4.3.9,4.3,3.6v6.3h-2.7v.3ZM153.3,77.9v-1.1c-.5-.5-1.1-.9-2-.9s-1.8.5-1.8,1.3.9,1.3,1.8,1.3c.9.3,1.8,0,2-.6h0ZM165.3,80.4v-5.9c0-1.3-.7-1.8-1.8-1.8s-1.8.5-2.3,1.1v6.6h-2.5v-9.7h2.5v1.1c.7-.7,1.8-1.6,3.4-1.6,2.3,0,3.2,1.1,3.2,3.2v6.8l-2.5.2h0ZM170.1,79.1l1.1-1.8c.7.7,2.3,1.3,3.4,1.3s1.6-.5,1.6-1.1c0-1.6-5.7-.2-5.7-4.1s1.3-3.2,4.1-3.2,2.9.5,3.9,1.3l-1.1,1.8c-.7-.7-1.6-1.1-2.9-1.1s-1.6.5-1.6.9c0,1.3,5.7.2,5.7,4.1s-1.6,3.2-4.3,3.2c-1.3.2-3.2-.4-4.1-1.3h0Z"/>
  <path class="st0" d="M228.8,39.6c.3,0,.6,0,.8.2s.5.3.6.6c.2.3.2.6.2.8s0,.6-.2.8c-.2.3-.4.5-.6.6-.3.2-.6.2-.8.2s-.6,0-.8-.2c-.3-.2-.5-.4-.6-.6-.2-.3-.2-.6-.2-.8s0-.6.2-.8c.2-.3.4-.5.6-.6.3-.1.6-.2.8-.2ZM228.8,39.9c-.2,0-.5,0-.7.2s-.4.3-.5.5-.2.5-.2.7,0,.5.2.7c.1.2.3.4.5.5.2.1.5.2.7.2s.5,0,.7-.2c.2-.1.4-.3.5-.5s.2-.5.2-.7,0-.5-.2-.7c-.1-.2-.3-.4-.5-.5-.3-.1-.5-.2-.7-.2ZM228.1,42.2v-1.8h.6c.2,0,.4,0,.5,0s.2,0,.2.2c0,0,0,.2,0,.3s0,.2-.2.3c0,0-.2.2-.4.2,0,0,.1,0,.2,0,0,0,.2.2.3.4l.2.4h-.4l-.2-.3c-.1-.2-.2-.4-.3-.4,0,0-.1,0-.2,0h-.2v.8h-.2ZM228.4,41.2h.4c.2,0,.3,0,.3,0,0,0,0-.1,0-.2s0,0,0-.2c0,0,0,0-.1,0,0,0-.2,0-.3,0h-.3v.6h0Z"/>
</svg>