<?xml version="1.0" encoding="UTF-8"?>
<svg id="Layer_3" xmlns="http://www.w3.org/2000/svg" version="1.1" viewBox="0 0 282.5 92.5">
  <!-- Generator: Adobe Illustrator 29.1.0, SVG Export Plug-In . SVG Version: 2.1.0 Build 142)  -->
  <defs>
    <style>
      .st0 {
        fill: #2b2e34;
      }

      .st1 {
        fill: #009fab;
      }
    </style>
  </defs>
  <path class="st0" d="M263.6,33.1c1.8,0,3.3,1.5,3.3,3.3s-1.5,3.3-3.3,3.3-3.3-1.5-3.3-3.3,1.5-3.3,3.3-3.3ZM263.6,33.5c-1.6,0-2.9,1.3-2.9,2.9s1.3,2.9,2.9,2.9,2.9-1.3,2.9-2.9-1.3-2.9-2.9-2.9ZM265.2,38.3c-.2,0-.3,0-.5,0s-.3,0-.5,0c-.9-1.7-1-1.7-1-1.7s0,0,0,.1c0,.5,0,1.4,0,1.6-.1,0-.3,0-.4,0s-.3,0-.4,0c0-.1,0-.7,0-2.1s0-1.5,0-1.7c.2,0,.5,0,.7,0s.4,0,.8,0c.7,0,1.1.4,1.1.9s-.4.9-.9,1l1.2,1.9ZM263.5,34.8h-.3c0,.7,0,1.1,0,1.5.3,0,.9,0,.9-.8s-.3-.7-.6-.7Z"/>
  <path class="st0" d="M111.6,42.6c-.8,6.1-1.2,12.2-1.6,18.2-.6-.1-1.3-.2-1.9-.2s-1.2,0-1.9.2c1.7-9.2,3-18.4,4.1-27.7.6.1,1.1.2,1.6.2s1.1,0,1.6-.2c2.9,6.4,6.3,13.5,9.2,19.2,3.2-6,6.4-12.8,9.3-19.2.6.1,1.2.2,1.7.2s1.1,0,1.7-.2c1,9.2,2.4,22,3.4,27.7-1.1-.1-2.2-.2-3.2-.2s-2.2,0-3.3.2c-.3-5.6-1-12.4-1.6-18.6h0c-3,6.2-6,12.4-8.8,18.6-.2,0-.5,0-.8,0s-.5,0-.8,0c-2.8-6.1-5.7-12.2-8.7-18.2"/>
  <path class="st0" d="M157.2,32.6c8.5,0,15.1,4.7,15.1,14.3s-6.4,14.4-15.3,14.4-15.2-4.3-15.2-14.4,6.1-14.4,15.3-14.4ZM157,34.9c-5.5,0-8.7,5.5-8.7,12.4s3.9,11.5,8.4,11.5,9-4,9-12.8-3.6-11.2-8.7-11.2Z"/>
  <path class="st0" d="M177.3,44.2c0-4.5,0-7.6-.3-11.1.9,0,2,.2,3.3.2s2.4-.1,3.3-.2c-.2,3.5-.3,6.6-.3,11.1v5.5c0,3,0,6,0,8.1,3,0,6.1-.2,9.1-.5,0,.6-.2,1-.2,1.8s0,1.2.2,1.7c-1.4,0-3.3-.2-7-.2-6.5,0-7.6.1-8.5.2.2-3.5.3-6.6.3-11.1"/>
  <path class="st0" d="M197.4,44.2c0-4.5,0-7.6-.3-11.1.9,0,2,.2,3.3.2s2.4-.1,3.3-.2c-.2,3.5-.3,6.6-.3,11.1v5.5c0,4.5,0,7.6.3,11.1-.9,0-2-.2-3.3-.2s-2.4.1-3.3.2c.2-3.5.3-6.6.3-11.1"/>
  <path class="st0" d="M210.7,33.1c.6.1,1.2.2,1.8.2s1.2,0,1.8-.2c5.8,6.4,11.5,12.7,17.3,19.1,0-6.4,0-17.3-.3-19.1.6.1,1.2.2,1.8.2s1.2,0,1.8-.2c-.6,11.7-.6,17-.6,27.7-.6-.1-1.1-.2-1.6-.2s-1.1,0-1.6.2c-5.5-6.5-11.3-13-17.5-19.5,0,3,0,6.3,0,9.3,0,6.4.1,8.7.2,10.1-.6-.1-1.3-.2-1.9-.2s-1.2,0-1.8.2c.2-1.2.8-11.5.8-19.7s-.2-6.1-.2-8Z"/>
  <path class="st0" d="M263.5,60.8c-1.3,0-2.4-.2-3.5-.2s-2.3.1-3.4.2c-.8-2.7-1.8-5.5-2.8-8.2-1.7,0-3.4,0-5.1,0s-2.8,0-4.2,0c-1.1,2.7-2,5.5-2.7,8.2-.6,0-1.2-.2-1.9-.2s-1.2.1-2,.2c2-4.4,8-18.7,11.4-27.9.5,0,1,.2,1.5.2s1-.1,1.5-.2c3.4,9.1,8.1,21.3,11.1,27.9ZM252.9,50.2c-1.2-3.2-2.3-6.4-3.6-9.5-1.4,3.1-2.6,6.3-3.8,9.5"/>
  <path class="st0" d="M117.3,74.7c-1.2,0-2.4,0-3.6,0s-2.4,0-3.6,0v1.4c0,2.7,0,4.5.2,6.6-.5,0-1.2-.1-2-.1s-1.4,0-2,.1c.1-2.1.2-3.9.2-6.6v-3.2c0-2.7,0-4.5-.2-6.6.5,0,1.2.1,2,.1s1.4,0,2-.1c-.1,2.1-.2,3.9-.2,6.6.8,0,2,0,3.6,0s2.7,0,3.6,0c0-2.7,0-4.5-.2-6.6.5,0,1.2.1,2,.1s1.4,0,2-.1c-.1,2.1-.2,3.9-.2,6.6v3.2c0,2.7,0,4.5.2,6.6-.5,0-1.2-.1-2-.1s-1.4,0-2,.1c.1-2.1.2-3.9.2-6.6"/>
  <path class="st0" d="M126.5,72.8c0-2.7,0-4.5-.2-6.6,1.4,0,2.8.1,4.2.1,2.3,0,4.3,0,5-.1,0,.3,0,.6,0,1s0,.7,0,1.1c-1.8-.1-4.7-.3-5.4-.3-.1,1.7-.1,3.5-.1,5.2,2.1,0,3.6,0,5.4-.2,0,.5-.1.8-.1,1.1s0,.5.1,1c-1.8-.1-3.6-.2-5.4-.2,0,1,0,2,0,3.1s0,2,0,3c1.8,0,3.6,0,5.5-.3,0,.3,0,.6,0,1.1s0,.7,0,1c-.9,0-2-.1-4.2-.1-3.9,0-4.5,0-5.1.1.1-2.1.2-3.9.2-6.6"/>
  <path class="st0" d="M153.7,82.7c-.8,0-1.4-.1-2.1-.1s-1.4,0-2,.1c-.5-1.6-1-3.3-1.6-4.9-1,0-2,0-3,0s-1.6,0-2.5,0c-.6,1.6-1.2,3.3-1.6,4.9-.4,0-.7-.1-1.1-.1s-.7,0-1.2.1c1.2-2.7,4.7-11.2,6.8-16.6.3,0,.6.1.9.1s.6,0,.9-.1c2,5.4,4.8,12.7,6.6,16.6ZM147.3,76.4c-.7-1.9-1.4-3.8-2.1-5.7-.8,1.9-1.5,3.8-2.2,5.7"/>
  <path class="st0" d="M157.7,72.8c0-2.7,0-4.5-.2-6.6.5,0,1.2.1,2,.1s1.4,0,2-.1c-.1,2.1-.2,3.9-.2,6.6v3.2c0,1.8,0,3.6,0,4.8,1.8,0,3.6,0,5.5-.3,0,.3,0,.6,0,1.1s0,.7,0,1c-.9,0-2-.1-4.2-.1-3.9,0-4.5,0-5.1.1.1-2.1.2-3.9.2-6.6"/>
  <path class="st0" d="M172.3,70.1c0-.9,0-1.8,0-2.1-.9,0-2.9.1-4.4.3,0-.4.1-.7.1-1.1s0-.7-.1-1.1c2.2,0,3.2.1,6.2.1s4,0,6-.1c0,.4-.1.7-.1,1.1s0,.7.1,1.1c-1.3-.2-3.3-.3-4.2-.3,0,.3,0,1.2,0,2.1v6c0,2.7,0,4.5.2,6.6-.5,0-1.2-.1-2-.1s-1.4,0-2,.1c.1-2.1.2-3.9.2-6.6"/>
  <path class="st0" d="M195.1,74.7c-1.2,0-2.4,0-3.6,0s-2.4,0-3.6,0v1.4c0,2.7,0,4.5.2,6.6-.5,0-1.2-.1-2-.1s-1.4,0-2,.1c.1-2.1.2-3.9.2-6.6v-3.2c0-2.7,0-4.5-.2-6.6.5,0,1.2.1,2,.1s1.4,0,2-.1c-.1,2.1-.2,3.9-.2,6.6.8,0,2,0,3.6,0s2.7,0,3.6,0c0-2.7,0-4.5-.2-6.6.5,0,1.2.1,2,.1s1.4,0,2-.1c-.1,2.1-.2,3.9-.2,6.6v3.2c0,2.7,0,4.5.2,6.6-.5,0-1.2-.1-2-.1s-1.4,0-2,.1c.1-2.1.2-3.9.2-6.6"/>
  <path class="st0" d="M217.4,79.9c-.3.7-.5,1.4-.5,2-1.3.7-2.9,1.1-4.9,1.1-5.5,0-8.8-3.5-8.8-8,0-6.6,4.5-9.1,9.5-9.1s3.8.5,4.9,1.2c-.3.8-.5,1.6-.5,2.4h-.3c-1.2-1.5-2.4-2.1-4.1-2.1-2.6,0-5.4,2.2-5.4,7.3s2.9,6.9,5.6,6.9,3.3-.7,4.3-1.8"/>
  <path class="st0" d="M234.9,82.7c-.8,0-1.4-.1-2.1-.1s-1.4,0-2,.1c-.5-1.6-1-3.3-1.6-4.9-1,0-2,0-3,0s-1.6,0-2.5,0c-.6,1.6-1.2,3.3-1.6,4.9-.4,0-.7-.1-1.1-.1s-.7,0-1.2.1c1.2-2.7,4.7-11.2,6.8-16.6.3,0,.6.1.9.1s.6,0,.9-.1c2,5.4,4.8,12.7,6.6,16.6ZM228.6,76.4c-.7-1.9-1.4-3.8-2.1-5.7-.8,1.9-1.5,3.8-2.2,5.7"/>
  <path class="st0" d="M242.7,75.1h-.2v1c0,2.7,0,4.5.2,6.6-.5,0-1.2-.1-2-.1s-1.4,0-2,.1c.1-2.1.2-3.9.2-6.6v-3.3c0-2.7,0-4.5-.2-6.6.5,0,1.2.1,2,.1s1.9-.1,3.5-.1c2.4,0,3.3.2,4.1.8,1,.7,1.5,1.7,1.5,3.2,0,2.3-1.3,3.8-3.7,4.4,1.5,2.7,3.3,5.4,5.1,8.1-.7,0-1.4-.1-2.1-.1s-1.5,0-2.2.1l-4.3-7.6ZM242.6,67.6c0,2.2,0,4.3,0,6.5.2,0,.4,0,.5,0,2.1,0,3.2-1.2,3.2-3.4s-1.1-3.1-3.7-3.1Z"/>
  <path class="st0" d="M254.9,72.8c0-2.7,0-4.5-.2-6.6,1.4,0,2.8.1,4.2.1,2.3,0,4.3,0,5-.1,0,.3,0,.6,0,1s0,.7,0,1.1c-1.8-.1-4.7-.3-5.4-.3-.1,1.7-.1,3.5-.1,5.2,2.1,0,3.6,0,5.4-.2,0,.5-.1.8-.1,1.1s0,.5.1,1c-1.8-.1-3.6-.2-5.4-.2,0,1,0,2,0,3.1s0,2,0,3c1.8,0,3.6,0,5.5-.3,0,.3,0,.6,0,1.1s0,.7,0,1c-.9,0-2-.1-4.2-.1-3.9,0-4.5,0-5,.1.1-2.1.2-3.9.2-6.6"/>
  <path class="st1" d="M100.2,82.6h-25.4s0-36.4,0-40.1c0-7-8.7-9.4-8.7-9.4h17.1c5.1,0,17,2.1,17,11.7s0,37.8,0,37.8Z"/>
  <path class="st1" d="M78.6,30.1c5.3,0,9.7-4.6,9.7-10.2s-4.3-10.2-9.7-10.2-9.7,4.6-9.7,10.2,4.3,10.2,9.7,10.2Z"/>
  <path class="st1" d="M71.8,82.6h-25.4s0-36.4,0-40.1c0-7-8.7-9.5-8.7-9.5h17c5.1,0,17,2.1,17,11.7s0,37.8,0,37.8Z"/>
  <path class="st1" d="M50.4,30.1c5.3,0,9.7-4.6,9.7-10.2s-4.3-10.2-9.7-10.2-9.7,4.6-9.7,10.2,4.3,10.2,9.7,10.2Z"/>
  <path class="st1" d="M43.4,82.6h-21.6s0-23.7,0-26.5c0-5.3-6.5-7.1-6.5-7.1h15.3c3.9,0,12.8,1.6,12.8,8.8s0,24.8,0,24.8Z"/>
  <path class="st1" d="M25.7,46c4,0,7.2-3.4,7.2-7.6s-3.2-7.6-7.2-7.6-7.2,3.4-7.2,7.6,3.2,7.6,7.2,7.6Z"/>
</svg>