<?xml version="1.0" encoding="UTF-8"?>
<svg id="Layer_1" xmlns="http://www.w3.org/2000/svg" version="1.1" viewBox="0 0 282.5 92.5">
  <!-- Generator: Adobe Illustrator 29.1.0, SVG Export Plug-In . SVG Version: 2.1.0 Build 142)  -->
  <defs>
    <style>
      .st0 {
        fill: #003bde;
      }
    </style>
  </defs>
  <path class="st0" d="M96.4,41.3c-4.8-1.5-10.5-3.4-10.5-8.3s4.1-6.4,8.1-6.4,7.9,2.3,8.5,7.2h10.8c-.8-12.8-11.7-17.4-18.9-17.4-12,0-19.3,7.9-19.3,17.2s11.3,15.5,17.8,17.9c5.6,2.1,11,3.9,11,9.1s-4.1,8.2-9,8.2-10.2-4.1-10.6-10.8h-11c.2,16.3,13.5,21,21.2,21,12.7,0,20.2-8.3,20.2-18.9,0-14-13.3-17.1-18.4-18.7h0ZM40.2,16.5c-17.9,0-31.1,14.6-31.1,30.9s11.7,31.6,31.1,31.6,31.1-16.8,31.1-31.4c0-17.1-13.7-31.1-31.1-31.1ZM40.2,68.7c-12,0-20.2-10.4-20.2-21s8.1-20.9,20.2-20.9,20.2,10.4,20.2,20.8c0,11.2-8.6,21.1-20.2,21.1ZM148.1,68.7c-12,0-19.6-10.4-19.6-21s7.5-20.9,19.6-20.9,15,6.8,16.7,11.1h11.8c-1.8-8.8-11.7-21.4-28.5-21.4s-30.5,14.6-30.5,30.9,11.2,31.6,30.5,31.6,26.7-12.2,28.7-21.4h-12.1c-1.7,4.2-6.6,11.1-16.5,11.1h0ZM229.8,26.2h-.2c-4.1-6.4-11.3-9.8-19.3-9.8-20.7,0-30.5,16.6-30.5,31.1s9.8,31.4,30.5,31.4,15.2-3.4,19.3-9.8h.2v8.3h11V18.1h-11v8.1ZM210.3,68.7c-13.2,0-19.6-11.8-19.6-21s6.4-20.9,19.6-20.9,19.9,8.3,19.9,20.9-8.9,21-19.9,21ZM259.4,45.5c0-8.6,2.9-12.9,6.4-15.1,2.5-1.6,6.2-2.3,8-2.3v-11.5c-2.7,0-10.2,1.2-14.7,8.3h-.2v-6.7h-10.5v59.4h11s0-23.6,0-32h0Z"/>
</svg>