<?xml version="1.0" encoding="UTF-8"?>
<svg id="Layer_5" xmlns="http://www.w3.org/2000/svg" version="1.1" viewBox="0 0 282.5 92.5">
  <!-- Generator: Adobe Illustrator 29.1.0, SVG Export Plug-In . SVG Version: 2.1.0 Build 142)  -->
  <defs>
    <style>
      .st0 {
        fill: #1f3570;
      }

      .st0, .st1 {
        fill-rule: evenodd;
      }

      .st1 {
        fill: #7e868a;
      }
    </style>
  </defs>
  <path class="st0" d="M40.9,41.6h8.9v1.2c-2.4.1-2.6.6-2.6,2.5v16c0,3.5,2,5.2,4.7,5.2s5.1-2,5.1-5.3v-15.6c0-1.9-.6-2.7-2.9-2.9v-1.2h7.1v1.2c-2.3.1-2.9,1-2.9,2.9v14.7c0,4.6-2,7.3-7.2,7.3s-7.7-2.8-7.7-7.5v-15c0-1.9-.2-2.4-2.6-2.5v-1.2ZM60.7,67.1v-1.2c1.8,0,2.4-.7,2.4-1.9v-11.6c0-1.6-.4-1.9-2.5-1.9v-1.2l5.4-.2v3.6h0c1-2.1,2.5-3.8,5-3.8s4.5,2,4.5,5.3v9.9c0,1.3.5,1.8,2.3,1.9v1.2h-5.5v-13.2c0-2.5-.9-3.3-2.2-3.3-2,0-4,2.6-4,6.2v7.2c0,1.1.6,1.8,2.4,1.9v1.2h-8ZM84.4,43.6c0,1.4-.8,2.4-1.9,2.4s-1.9-1-1.9-2.4.8-2.4,1.9-2.4,1.9,1,1.9,2.4M78.8,67.1v-1.2c1.8,0,2.4-.7,2.4-1.9v-11.8c0-1.6-.4-1.9-2.4-1.9v-1.2l5.6-.2v15.2c0,1.1.6,1.8,2.4,1.9v1.2h-8ZM92.5,42.5v6.8h4.5v1.4h-4.5v13.1c0,1.6.6,2.3,1.6,2.3s2.2-.8,2.2-4.7v-1h1.2v1.7c0,3.8-1.4,5.4-4.2,5.4s-3.9-1.5-3.9-4.5v-12.3h-2.3v-1.1c2.7-1.1,4.1-2.4,4.3-7.1h1.2ZM112.6,58.1c0-5.3-2.6-9.2-6.7-9.2s-7.2,3.9-7.2,9.3,3,9.3,7.7,9.3,6-3.2,6.3-6.5l-1.2-.2c-.4,2.5-1.5,5.4-4.8,5.4s-4.4-2.8-4.4-8h10.2ZM102.4,56.7c0-4.8,1.4-6.6,3.5-6.6s3.1,1.9,3.1,6.6h-6.6ZM122.7,42.7c1.9,0,2.4.3,2.4,1.9v6.7h0c-.7-1.4-2-2.4-3.7-2.4-3.9,0-6.8,4-6.8,9.4s3.1,9.3,6.4,9.3,3.5-1.3,4.3-3.1h0v2.6l5.2-.2v-1.2c-1.5,0-2.2-.6-2.2-2.6v-21.8l-5.6.2v1.2ZM118.1,58.3c0-5.7,1.3-8,3.4-8s3.6,2.8,3.6,8-2,8-3.9,8-3.1-2.3-3.1-8ZM131.4,67.1v-1.2c2.2-.2,2.6-.6,2.6-2.5v-18.1c0-1.9-.4-2.4-2.6-2.5v-1.2h9v1.2c-2.3.1-2.7.6-2.7,2.5v7.7h8v-7.7c0-1.9-.5-2.4-2.7-2.5v-1.2h9v1.2c-2.2.1-2.6.6-2.6,2.5v18.1c0,1.9.4,2.4,2.6,2.5v1.2h-9v-1.2c2.3-.2,2.7-.6,2.7-2.5v-9h-8v9c0,1.9.4,2.4,2.7,2.5v1.2h-9ZM166.4,58.1c0-5.3-2.6-9.2-6.7-9.2s-7.2,3.9-7.2,9.3,3,9.3,7.7,9.3,6-3.2,6.3-6.5l-1.2-.2c-.4,2.5-1.5,5.4-4.8,5.4s-4.4-2.8-4.4-8h10.3ZM156.1,56.7c0-4.8,1.4-6.6,3.5-6.6s3.1,1.9,3.1,6.6h-6.6ZM181,62c0,2.7-.4,3.5-1.1,3.5s-.8-.5-.8-1.6v-10.3c0-2.8-1.6-4.7-5.8-4.7s-5.6,2-5.6,4.5.7,2.2,1.8,2.2,1.9-.8,1.9-2.2-.4-2-1.6-2.1c.8-.9,1.9-1.3,3.2-1.3,2,0,2.9.9,2.9,3.1v3c-3.2,1.2-9.1,2.9-9.1,7.2s1.7,4.2,4.5,4.2,3.7-1.2,4.6-2.9h0c.2,2,1.2,2.9,3,2.9s3.1-1.7,3.1-5.6h-1.2ZM175.9,59.7c0,4.2-1.7,6.4-3.6,6.4s-2-1-2-2.9c0-3.2,2.7-4.6,5.7-5.6v2.1ZM181.7,67.1v-1.2c1.8,0,2.4-.7,2.4-1.9v-19.3c0-1.3-.6-1.9-2.5-2v-1.2l5.6-.2v22.7c0,1.1.6,1.8,2.4,1.9v1.2h-8ZM195,42.5v6.8h4.5v1.4h-4.5v13.1c0,1.6.6,2.3,1.6,2.3s2.2-.8,2.2-4.7v-1h1.2v1.7c0,3.8-1.4,5.4-4.2,5.4s-3.9-1.5-3.9-4.5v-12.3h-2.3v-1.1c2.7-1.1,4.1-2.4,4.3-7.1h1.2ZM199.8,67.1v-1.2c1.8,0,2.4-.7,2.4-1.9v-19.4c0-1.6-.5-1.9-2.5-1.9v-1.2l5.6-.2v10.9h0c.7-1.6,2.2-3.3,4.7-3.3s4.6,2,4.6,5.3v9.9c0,1.1.6,1.8,2.3,1.9v1.2h-5.5v-13c0-2.6-.9-3.5-2.3-3.5s-3.9,2.5-3.9,6v7.4c0,1.1.6,1.8,2.4,1.9v1.2h-8ZM230.9,60.9c-.3,3.5-2,6.7-6.1,6.7s-7.3-3.4-7.3-8.9,3.2-9.9,7.7-9.9,5.2,2,5.2,4.9-.6,2.7-1.9,2.7-1.7-.9-1.7-2.2.6-2.2,1.5-2.2.4.1.6.1h0c-.6-1.4-1.7-2.1-3.1-2.1-2.8,0-4.6,2.8-4.6,8.1s1.9,8.1,4.1,8.1,4-2.8,4.4-5.4l1.2.2ZM246.3,62c0,2.7-.4,3.5-1.1,3.5s-.8-.5-.8-1.6v-10.4c0-2.8-1.6-4.7-5.8-4.7s-5.6,2-5.6,4.5.7,2.3,1.8,2.3,1.9-.8,1.9-2.2-.4-2-1.6-2.1c.8-.9,1.9-1.3,3.2-1.3,2,0,3,.9,3,3.1v3.1c-3.2,1.2-9.1,2.9-9.1,7.2s1.7,4.2,4.5,4.2,3.7-1.2,4.6-2.9h0c.2,2,1.2,2.9,3,2.9s3.1-1.7,3.1-5.6h-1.2ZM241.2,59.7c0,4.2-1.7,6.5-3.6,6.5s-2.1-1-2.1-3c0-3.2,2.7-4.6,5.7-5.7v2.1ZM247.9,67.1v-1.2c1.6,0,2.2-.7,2.2-1.9v-10.2c0-2.5-.4-3.4-2.3-3.4v-1.2l5.1-.2v4.3h0c.5-1.9,1.8-4.5,4-4.5s2.7,1.1,2.7,3.2-.8,2.4-1.7,2.4-1.7-.5-1.7-2.2.5-1.8,1.6-1.8c-.2-.3-.6-.4-1-.4-2.5,0-3.7,5.5-3.7,8.8v5.3c0,1.1.6,1.8,3.1,1.9v1.2h-8.5ZM273.6,58.1c0-5.4-2.6-9.3-6.7-9.3s-7.2,3.9-7.2,9.4,3,9.3,7.7,9.3,6-3.2,6.3-6.5l-1.2-.2c-.4,2.5-1.5,5.4-4.8,5.4s-4.4-2.8-4.4-8h10.3ZM263.4,56.7c0-4.8,1.4-6.7,3.5-6.7s3.1,1.9,3.1,6.7h-6.6ZM274.5,46h.7c.3,0,.5.3.5.5s-.1.5-.5.5h-.7v-1ZM274.5,47.4h.5c.1,0,.4,0,.5.4,0,.4,0,.8.1,1.1h.5c0-.2-.1-.7-.1-.8,0-.6-.2-.8-.6-.8h0c.4,0,.7-.4.7-.8s-.3-.8-.9-.8h-1.3v3.2h.5v-1.4ZM275,44.4c-1.5,0-2.8,1.2-2.8,2.8,0,1.5,1.2,2.8,2.8,2.8,0,0,0,0,0,0,1.5,0,2.8-1.2,2.8-2.8,0-1.5-1.2-2.8-2.8-2.8h0ZM275,44.8c1.3,0,2.4,1,2.4,2.3,0,0,0,0,0,0,0,1.3-1,2.4-2.4,2.4-1.3,0-2.4-1-2.4-2.4,0,0,0,0,0,0,0-1.3,1.1-2.4,2.4-2.4Z"/>
  <path class="st1" d="M12.9,71.7c-1.1-.3-2.1-1.2-2.5-2.3-1.2-.2-2.1-1.2-2.6-2.4,0,0,0,0,0,0l4,.5c1.6-.6,3.8-2.4,5-6.8.9-3.1,1-7.9,1-13.3v-20.9l-2.5-.6,4.7-2.5v26.1c0,4.7-.2,8.8-1.2,12.1-.6,2.4-3.2,7.3-7.6,7.9l3.1.4c2.8-.7,5.2-3.3,6.4-6.6,1.5-3.8,1.7-9,1.7-15.1v-24.3l-2.5-.6,4.8-2.6v28.5c0,7.1-.8,12.1-2.3,15.6-1.1,2.4-4.1,6.9-8.7,6.9l3.6.4c2.7-.5,5.6-2.8,7.4-6.3,1.8-3.8,2.7-9.4,2.7-17.7v-26.8l-2.6-.6,4.9-2.6v30.2c0,11.3-1.7,19.7-7.2,23.5-1.7,1.2-3.5,2.1-5.8,2-1.6,0-3.1-.8-4-2.3Z"/>
  <path class="st0" d="M8.6,67.1h0,0s0,0,0,0c0,0,0,0,0,0,0,0,0,0,0,0,0,0,0,0,0,0,0,0,0,0,0,0,0,0,0,0,0,0,0,0,0,0,0,0,0,0,0,0,0,0,0,0,0,0,0,0,0,0,0,0,0,0,0,0,0,0,.1,0,0,0,0,0,0,0,0,0,0,0,.1,0,0,0,0,0,0,0,0,0,0,0,.1,0,0,0,0,0,0,0,0,0,0,0,.1,0,0,0,0,0,0,0,0,0,0,0,.1,0,0,0,0,0,0,0,0,0,0,0,.1,0,0,0,0,0,0,0,0,0,0,0,.1,0,0,0,0,0,0,0,0,0,0,0,.1,0,0,0,0,0,0,0,0,0,0,0,.1,0,0,0,0,0,0,0,0,0,0,0,.1-.1,0,0,0,0,0,0,0,0,0,0,.1-.1,0,0,0,0,0,0,0,0,0,0,.1-.1,0,0,0,0,0,0,0,0,0,0,.1-.1,0,0,0,0,0,0,0,0,0,0,.1-.1,0,0,0,0,0,0,0,0,0,0,.1-.1,0,0,0,0,0,0,0,0,0-.1.1-.2,0,0,0,0,0-.1,0,0,0-.1.1-.2,0,0,0,0,0-.1,0,0,0-.1.1-.2,0,0,0,0,0-.1,0,0,0-.1.1-.2,0,0,0,0,0-.1,0,0,0-.1.1-.2,0,0,0-.1,0-.2,0,0,0-.1.1-.2,0,0,0-.1,0-.2,0,0,0-.1.1-.2,0,0,0-.1,0-.2,0,0,0-.1,0-.2,0,0,0-.1,0-.2,0,0,0-.2,0-.2,0,0,0-.1,0-.2,0,0,0-.2,0-.3,0-.1,0-.2.1-.3,0,0,0-.1,0-.2,0-.2.1-.4.2-.5.7-2.7.9-8.1.9-11.6v-22.9l-11.2,6v23.6c0,9,1.6,11.2,3.6,11.5,0,0,0,0,0,0h.8Z"/>
</svg>